<svg width="150" height="150" viewBox="0 0 150 150" fill="none" xmlns="http://www.w3.org/2000/svg">
<path d="M9.18289 83.0939C12.2298 75.9594 12.2298 64.9153 9.18289 57.7808C8.78913 56.862 9.71728 55.9526 10.6454 56.337C17.8831 59.3464 29.0771 59.3464 36.3148 56.337C37.2523 55.9526 38.1711 56.862 37.7773 57.7808C34.7304 64.9153 34.7304 75.9594 37.7773 83.0939C38.1711 84.0127 37.243 84.9221 36.3148 84.5377C29.0771 81.5282 17.8831 81.5282 10.6454 84.5377C9.7079 84.9221 8.78913 84.0127 9.18289 83.0939Z" fill="#F0B4A5"/>
<path d="M6.74571 61.024C6.68946 60.7427 6.34258 60.6302 6.12695 60.8271C5.50818 61.3896 4.91754 62.0084 4.3644 62.674C-1.42011 69.6023 -1.43886 79.6901 4.2144 86.6277C4.39253 86.8434 4.73941 86.7871 4.84254 86.534C7.71136 79.3432 8.34888 69.4242 6.74571 61.024Z" fill="#666666"/>
<path d="M7.13962 88.8315C6.87711 88.9347 6.82086 89.2722 7.03649 89.4503C14.6023 95.5723 25.7963 95.1598 32.8653 88.1847C33.0621 87.9878 33.2496 87.7909 33.4371 87.594C33.6246 87.3971 33.5215 87.0409 33.2403 86.9846C24.6713 85.3533 14.4898 85.9721 7.13962 88.8315Z" fill="#666666"/>
<path d="M76.038 79.0342H67.0847C62.3408 79.0342 59.5376 81.7249 59.5376 86.4031C59.5376 91.0814 62.3408 93.7439 67.0847 93.7439H76.038C80.7819 93.7439 83.8288 91.3626 83.8288 86.6844C83.8288 82.0061 80.7819 79.0342 76.038 79.0342ZM76.0943 85.9812C72.0067 85.9812 70.066 84.3312 66.644 84.3312C63.2221 84.3312 61.4783 85.2781 61.4783 85.2781C61.4783 82.2311 63.9815 79.7561 67.0753 79.7561C68.9128 79.7561 70.5347 80.628 71.5566 81.978C72.5785 80.6373 74.2005 79.7561 76.038 79.7561C79.1318 79.7561 81.635 82.2311 81.635 85.2781C81.635 85.2781 80.1819 85.9812 76.0943 85.9812Z" fill="#F0B4A5"/>
<path d="M140.182 93.744V65.562C139.198 65.5339 139.029 64.9526 138.148 64.9526C137.839 64.9526 137.52 65.037 137.22 65.1401C137.211 65.2151 137.201 65.2808 137.201 65.3651V93.3408C137.511 93.2283 137.839 93.144 138.148 93.144C139.029 93.144 139.198 93.7252 140.182 93.7533V93.744Z" fill="#666666"/>
<path d="M150 93.744V65.562C149.015 65.5339 148.847 64.9526 147.965 64.9526C147.656 64.9526 147.337 65.037 147.037 65.1401C147.028 65.2151 147.019 65.2808 147.019 65.3651V93.3408C147.328 93.2283 147.656 93.144 147.965 93.144C148.847 93.144 149.015 93.7252 150 93.7533V93.744Z" fill="#666666"/>
<path d="M56.9596 86.272C56.7253 81.9406 56.4721 78.2093 51.597 78.3499C49.1595 78.4156 47.2188 78.9687 44.9125 80.8156V65.459C43.2249 65.4777 43.3562 66.2465 41.9405 66.2465C41.9405 66.2465 41.9405 66.2465 41.9312 66.2465V93.7253C42.0062 93.7253 42.0624 93.7441 42.1374 93.7441C43.4968 93.7441 43.4312 93.0315 44.9125 92.9565V87.3408C44.9125 83.7688 44.8937 81.1625 48.5688 79.9718C52.9377 78.5562 54.0158 81.8188 54.0065 85.4095V93.4347C54.2221 93.4909 54.4658 93.5284 54.7658 93.5284C55.9471 93.5284 56.0596 92.9847 57.044 92.7972C57.0815 91.4753 57.119 89.0846 56.969 86.272H56.9596Z" fill="#666666"/>
<path d="M97.5066 83.1407C97.6848 83.1782 97.8723 83.2157 98.116 83.2157C99.2692 83.2157 99.241 82.6157 100.479 82.5501C99.1848 79.4188 96.8597 77.0656 92.7065 77.8812C91.5534 78.1062 90.0439 78.95 88.9095 80.2438V78.7906C88.7033 78.9031 88.4877 78.9875 88.0845 78.9875C87.0532 78.9875 86.9032 78.3875 86.0126 78.3875C85.9845 78.3875 85.9563 78.3875 85.9282 78.3875C85.9282 78.3875 85.9282 78.3875 85.9282 78.3969V92.8722C85.9282 92.8722 86.0032 92.8628 86.0407 92.8628C87.297 92.8628 87.5501 93.6691 88.9095 93.7347V84.6314C88.9095 82.1563 89.7627 79.4094 93.5222 79.2406C95.9222 79.1375 96.8597 81.4532 97.516 83.1314L97.5066 83.1407Z" fill="#666666"/>
<path d="M123.579 93.6221C126.288 93.1065 127.648 91.5127 128.566 90.3314V92.7596C128.67 92.7409 128.773 92.7315 128.866 92.7315C129.701 92.7315 129.842 93.294 130.807 93.294C130.957 93.294 131.07 93.2752 131.182 93.2565C131.201 93.1627 131.21 93.0784 131.21 92.9752V88.4282C131.238 88.1939 131.248 87.9501 131.248 87.7064C131.248 87.4626 131.229 87.2188 131.21 86.9845V80.1593C131.21 80.1593 131.21 80.0749 131.201 80.028C131.06 80.0749 130.892 80.1124 130.657 80.1124C129.701 80.1124 129.551 79.5593 128.726 79.5499C128.632 79.728 128.566 79.9343 128.566 80.1593V82.4187L128.548 87.9595C128.548 88.747 127.966 91.3252 124.001 92.1221C120.794 92.769 120.494 89.9002 120.494 87.697V80.1499C120.494 80.1499 120.494 80.1124 120.494 80.0937C120.448 80.0937 120.41 80.103 120.363 80.103C119.397 80.103 119.257 79.5405 118.422 79.5405C118.282 79.5405 118.132 79.5593 117.982 79.5968C117.897 79.7655 117.851 79.953 117.851 80.1499C117.851 80.1499 117.879 86.1969 117.879 87.1532C117.879 92.394 120.129 94.269 123.579 93.6128V93.6221Z" fill="#666666"/>
<path d="M118.61 76.9715C118.629 76.5121 117.842 76.1183 117.598 76.0152C114.823 74.8433 111.298 74.9746 108.832 75.9965C108.513 76.1277 108.195 75.8183 108.335 75.4996C109.376 73.062 109.376 69.2932 108.335 66.865C108.204 66.5556 108.513 66.2368 108.832 66.3681C111.298 67.39 115.114 67.39 117.589 66.3681C117.748 66.3025 118.732 65.815 118.901 65.3275C118.929 65.2524 118.929 65.0931 118.714 65.0931C112.713 65.4868 106.816 64.9524 106.554 64.9243C106.554 64.9243 106.545 64.9243 106.535 64.9243C103.807 65.0181 105.054 65.5806 105.054 66.3962V93.725C105.148 93.725 105.232 93.7438 105.335 93.7438C106.629 93.7438 106.629 93.0969 107.904 92.975C107.979 92.975 108.035 92.9094 108.035 92.8344V77.9278C108.035 77.8528 108.101 77.7871 108.176 77.7871C109.142 77.7871 114.823 77.7778 118.47 77.084C118.526 77.0746 118.601 77.0371 118.601 76.9809L118.61 76.9715Z" fill="#666666"/>
<path d="M108.317 75.5281C109.367 73.0812 109.367 69.2936 108.317 66.8467C108.186 66.5279 108.495 66.2185 108.823 66.3498C111.308 67.3811 115.152 67.3811 117.627 66.3498C117.945 66.2185 118.264 66.5279 118.133 66.8467C117.083 69.2936 117.083 73.0812 118.133 75.5281C118.264 75.8469 117.955 76.1563 117.627 76.025C115.142 74.9937 111.298 74.9937 108.823 76.025C108.505 76.1563 108.186 75.8469 108.317 75.5281Z" fill="#F0B4A5"/>
</svg>
