<svg xmlns="http://www.w3.org/2000/svg" width="45" height="45" viewBox="0 0 45 45">
  <g id="グループ_67" data-name="グループ 67" transform="translate(-1046 -60)">
    <g id="グループ_66" data-name="グループ 66">
      <path id="パス_5" data-name="パス 5" d="M1111.864,336a4.846,4.846,0,0,1,4.84,4.84V367.7a4.846,4.846,0,0,1-4.84,4.84H1085a4.846,4.846,0,0,1-4.84-4.84v-26.86A4.846,4.846,0,0,1,1085,336Zm0-3.026H1085a7.867,7.867,0,0,0-7.867,7.867V367.7a7.866,7.866,0,0,0,7.867,7.865h26.86a7.866,7.866,0,0,0,7.867-7.865v-26.86a7.867,7.867,0,0,0-7.867-7.867" transform="translate(-29.934 -271.77)" fill="#fff"/>
      <path id="パス_6" data-name="パス 6" d="M1095.682,343.914a7.534,7.534,0,1,1-7.534,7.534,7.542,7.542,0,0,1,7.534-7.534m0-3.074a10.608,10.608,0,1,0,10.608,10.608,10.608,10.608,0,0,0-10.608-10.608" transform="translate(-27.085 -268.947)" fill="#fff"/>
      <path id="パス_7" data-name="パス 7" d="M1104.156,340.9a2.371,2.371,0,1,0-2.371,2.371,2.371,2.371,0,0,0,2.371-2.371" transform="translate(-21.939 -269.778)" fill="#fff"/>
    </g>
    <rect id="長方形_72" data-name="長方形 72" width="45" height="45" transform="translate(1046 60)" fill="none"/>
  </g>
</svg>
