<svg width="382" height="318" viewBox="0 0 382 318" fill="none" xmlns="http://www.w3.org/2000/svg">
<mask id="mask0_97_598" style="mask-type:alpha" maskUnits="userSpaceOnUse" x="0" y="0" width="382" height="318">
<path d="M0 0.5H382V317.5H0V0.5Z" fill="#EBE5E4"/>
</mask>
<g mask="url(#mask0_97_598)">
<path d="M0 7H300V307H0V7Z" fill="#EBE5E4"/>
<path fill-rule="evenodd" clip-rule="evenodd" d="M376.488 116.985C370.756 118.743 364.608 120.987 360.7 122.518C354.513 125.032 337.924 129.801 318.78 129.801C308.065 129.801 299.918 127.594 292.509 125.587C291.431 125.295 290.37 125.007 289.318 124.731C281.098 122.574 273.079 120.974 261.573 122.768C249.059 124.718 233.898 125.95 220.069 126.953C217.527 127.138 215.035 127.314 212.614 127.485C201.732 128.256 192.276 128.925 186.138 129.763C182.704 130.231 176.967 131.819 169.64 134.101C165.218 135.478 160.384 137.053 155.31 138.705C152.054 139.766 148.7 140.859 145.294 141.952C136.64 144.728 127.738 147.476 119.673 149.554C111.688 151.612 104.205 153.099 98.4977 153.195C78.1223 153.539 66.6541 147.666 50.8766 139.586C49.6878 138.977 48.4746 138.356 47.2313 137.724C43.2561 135.703 40.4427 135.223 38.2481 135.368C36.0229 135.515 33.9668 136.33 31.4723 137.73C30.5412 138.252 29.5434 138.869 28.4653 139.536C23.9672 142.317 18.0699 145.964 9.7694 147.213C1.51003 148.455 -7.71143 147.016 -15.6408 144.9C-23.63 142.767 -30.7217 139.833 -34.896 137.731L-31.1035 130.201C-27.4208 132.056 -20.8699 134.778 -13.4665 136.754C-6.00326 138.746 1.91785 139.868 8.51537 138.876C14.9474 137.908 19.083 135.373 23.4565 132.691C24.7137 131.921 25.9907 131.138 27.3475 130.377C30.2994 128.721 33.6449 127.223 37.692 126.955C41.7695 126.686 46.099 127.69 51.0522 130.208C52.2426 130.813 53.3973 131.404 54.5214 131.979C70.3641 140.079 80.1313 145.073 98.3556 144.765C103.005 144.687 109.674 143.424 117.57 141.39C125.386 139.376 134.096 136.69 142.718 133.924C146.038 132.859 149.36 131.777 152.607 130.719C157.733 129.049 162.674 127.44 167.133 126.051C174.348 123.804 180.753 121.988 184.998 121.409C191.437 120.531 201.265 119.836 212.154 119.065C214.546 118.896 216.989 118.724 219.459 118.544C233.308 117.54 248.146 116.328 260.275 114.437C273.411 112.39 282.714 114.282 291.458 116.576C292.577 116.87 293.681 117.168 294.777 117.464C302.178 119.461 309.251 121.37 318.78 121.37C336.75 121.37 352.283 116.843 357.546 114.698L357.573 114.688L357.599 114.677C361.646 113.092 368.016 110.765 374.015 108.925C377.01 108.006 379.982 107.187 382.561 106.646C384.937 106.147 387.615 105.735 389.678 106.071L388.322 114.392C388.325 114.393 388.299 114.388 388.238 114.384C388.177 114.38 388.093 114.377 387.983 114.378C387.759 114.379 387.464 114.395 387.094 114.432C386.346 114.509 385.408 114.663 384.294 114.897C382.066 115.365 379.364 116.103 376.488 116.985Z" fill="#163E64"/>
<path d="M19.384 65.6323C20.36 64.0323 21.32 62.3043 22.168 60.6243L20.456 59.0723C19.48 60.9443 18.264 62.8803 17.416 64.0643L19.384 65.6323ZM21.32 56.7363C20.6 56.3043 19.128 55.6163 18.248 55.2163L17 56.9443C17.944 57.4403 19.368 58.2083 20.024 58.6723L21.32 56.7363ZM25.752 57.2163V59.1203H24.504V57.2163H25.752ZM27.88 61.1843V55.1523H22.424V62.2083H24.504V61.1843H27.88ZM32.36 51.5043H21.912V52.4323C21.208 51.9683 19.88 51.2643 19.032 50.8323L17.704 52.4963C18.616 53.0403 19.96 53.8403 20.584 54.3363L21.912 52.5923V53.7603H28.904V62.9603C28.904 63.2963 28.76 63.4083 28.376 63.4243C27.96 63.4243 26.488 63.4403 25.32 63.3443C25.672 63.9843 26.104 65.1043 26.2 65.7923C27.992 65.7923 29.224 65.7603 30.088 65.3763C30.936 64.9923 31.24 64.3363 31.24 63.0083V53.7603H32.36V51.5043Z" fill="#DB8855"/>
<path d="M35.128 51.3763V56.9603C35.128 59.5523 34.92 62.2403 33.112 64.2723C33.72 64.6403 34.68 65.4403 35.128 65.9683C37.304 63.5043 37.528 60.1283 37.528 56.9763V51.3763H35.128ZM39.928 52.0803V64.1763H42.312V52.0803H39.928ZM44.536 51.3603V65.7603H47V51.3603H44.536Z" fill="#DB8855"/>
<path d="M61.88 53.3603H61.16V52.6243H61.88V53.3603ZM59.72 53.3603H59.016V52.6243H59.72V53.3603ZM57.576 53.3603H56.888V52.6243H57.576V53.3603ZM63.8 51.1043H55.064V54.8803H63.8V51.1043ZM54.36 57.0243H64.312V55.2003H54.36V57.0243ZM54.632 60.3203L53.032 60.7043V58.3843H54.344V56.3523H53.032V53.7763H54.568V51.7443H49.304V53.7763H50.968V56.3523H49.432V58.3843H50.968V61.2003C50.264 61.3603 49.608 61.4883 49.048 61.6003L49.512 63.7763C51.096 63.3763 53.08 62.8803 54.904 62.3843L54.632 60.3203ZM57.336 59.0563H61.432V59.7443H57.336V59.0563ZM62.488 61.3603C62.216 61.6643 61.832 62.0323 61.496 62.3203C61.176 62.0163 60.888 61.6963 60.632 61.3603H62.488ZM62.808 61.3603H63.576V57.4403H55.32V61.3603H57.704C56.456 62.2563 54.84 63.0403 53.32 63.5043C53.752 63.9043 54.36 64.6563 54.648 65.1363C55.528 64.8003 56.44 64.3363 57.288 63.8083V65.8083H59.48V62.8803C60.376 64.1603 61.544 65.2003 62.968 65.8243C63.288 65.2643 63.928 64.4323 64.408 64.0163C63.864 63.8403 63.368 63.6163 62.888 63.3443C63.288 63.0723 63.752 62.7363 64.2 62.3683L62.808 61.3603Z" fill="#DB8855"/>
<path d="M76.312 53.2643C76.232 53.5523 76.104 53.8723 76.008 54.1283H74.52C74.456 53.8723 74.344 53.5523 74.216 53.2643H76.312ZM80.296 54.1283H78.232C78.36 53.8883 78.504 53.6003 78.68 53.2643H80.04V51.4883H76.36V50.6723H74.072V51.4883H70.744V53.2643H72.344L72.024 53.3283C72.136 53.5683 72.232 53.8563 72.312 54.1283H70.488V56.0003H80.296V54.1283ZM70.312 59.1203L69.032 59.6483V56.5443H70.344V54.3683H69.032V50.8643H66.872V54.3683H65.432V56.5443H66.872V60.4963C66.184 60.7523 65.56 60.9763 65.048 61.1523L65.832 63.4723C67.32 62.8003 69.16 61.9843 70.824 61.1843L70.312 59.1203ZM73.416 59.7603H77.368V60.3523H73.416V59.7603ZM73.416 57.8883H77.368V58.4643H73.416V57.8883ZM78.056 63.7923C77.848 63.7923 77.816 63.7443 77.816 63.3123V61.7443H79.64V56.4963H71.24V61.7443H72.488C72.216 62.7523 71.576 63.4563 69.144 63.9203C69.592 64.3683 70.184 65.3123 70.392 65.8883C73.56 65.0403 74.44 63.6323 74.776 61.7443H75.608V63.3443C75.608 65.1043 75.944 65.7443 77.656 65.7443H78.728C79.944 65.7443 80.488 65.2483 80.696 63.3443C80.12 63.2163 79.192 62.8643 78.792 62.5443C78.744 63.6323 78.68 63.7923 78.472 63.7923H78.056Z" fill="#DB8855"/>
<path d="M85.496 53.9523C84.984 53.2163 83.864 52.2563 82.952 51.6163L81.352 52.9443C82.264 53.6643 83.336 54.7043 83.784 55.4403L85.496 53.9523ZM89.752 54.6883H87.704V53.9203H89.752V54.6883ZM87.704 56.3043H89.752V57.0883H87.704V56.3043ZM95.976 61.7123V59.7123H89.96V58.8323H92.008V57.1043C93.096 57.7283 94.344 58.5283 94.984 59.0883L96.424 57.3443C95.576 56.6883 93.848 55.7603 92.696 55.1843L92.008 55.9843V54.1603L93.368 55.0563C94.152 54.4483 95.16 53.5203 96.008 52.5923L94.008 51.3923C93.512 52.0963 92.696 52.9603 92.008 53.6003V52.1763H89.752C89.928 51.7763 90.104 51.3283 90.28 50.8643L87.656 50.5923C87.608 51.0723 87.496 51.6483 87.368 52.1763H85.56V56.9443L85.016 55.3283C83.608 56.0643 82.184 56.8003 81.208 57.2323L82.36 59.1523C83.336 58.5923 84.504 57.8883 85.56 57.2323V58.8323H87.592V59.7123H81.64V61.7123H85.72C84.456 62.5923 82.792 63.3443 81.144 63.7923C81.64 64.2563 82.344 65.1523 82.696 65.7283C84.472 65.1043 86.216 64.0643 87.592 62.8003V65.7923H89.96V62.8003C91.4 63.9843 93.16 65.0083 94.904 65.6003C95.24 65.0243 95.944 64.1123 96.456 63.6483C94.84 63.2323 93.16 62.5283 91.88 61.7123H95.976Z" fill="#DB8855"/>
<path d="M105.768 55.1043H108.504V53.9043H105.768V53.3603H103.672V53.9043H101.08V55.1043H103.672V55.5043H100.408V56.7523H109.064V55.5043H105.768V55.1043ZM106.456 58.7523H103.032V58.2083H106.456V58.7523ZM105.992 59.8563H107.288C107.048 60.0483 106.776 60.2403 106.536 60.4163C106.296 60.2563 106.088 60.0963 105.896 59.9363L105.992 59.8563ZM100.008 63.2163V61.2963C100.376 61.6323 100.968 62.3523 101.224 62.7203C101.976 62.4483 102.744 62.0963 103.496 61.6803V62.9283H105.528V61.5843C106.328 62.2083 107.256 62.7203 108.248 63.0243C108.504 62.5923 109.032 61.9203 109.416 61.5843C108.888 61.4723 108.376 61.2963 107.88 61.1043C108.344 60.8483 108.84 60.5283 109.304 60.1763L108.472 59.6323V57.1043H101.128V59.8563H103.352C102.392 60.4483 101.192 60.9443 100.008 61.2803V53.2483H109.464V63.2163H100.008ZM97.832 51.1683V65.8243H100.008V65.2963H109.464V65.8243H111.736V51.1683H97.832Z" fill="#DB8855"/>
<path d="M22.731 77.6773V75.9503H24.205V77.6773H22.731ZM25.525 79.3383V75.9503H27.153V74.6853H25.525V72.2433H24.205V74.6853H22.731V72.1333H21.411V74.6853H19.915V72.3753H18.562V74.6853H17V75.9503H18.562V82.3193H19.915V81.6263H26.779V80.3613H19.915V75.9503H21.411V79.3493H22.731V78.8983H24.205V79.3383H25.525Z" fill="#DB8855"/>
<path d="M30.475 75.2463H32.4V76.0383H30.475V75.2463ZM30.475 73.4753H32.4V74.2673H30.475V73.4753ZM35.645 74.2673H33.72V73.4753H35.645V74.2673ZM35.645 76.0383H33.72V75.2463H35.645V76.0383ZM37.009 77.0943V72.4193H29.166V77.0943H30.915C30.134 77.7653 29.045 78.3373 27.945 78.6563C28.231 78.9313 28.616 79.4153 28.803 79.7343C29.507 79.4813 30.178 79.1403 30.805 78.7113V79.1073C30.805 79.8113 30.585 80.7353 28.748 81.3293C29.034 81.5823 29.474 82.0773 29.65 82.3963C31.839 81.5933 32.158 80.2073 32.158 79.1623V78.4033H31.223C31.718 78.0073 32.18 77.5783 32.543 77.0943H33.676C34.028 77.5893 34.468 78.0183 34.963 78.4143H34.138V82.2863H35.502V78.8103C36.074 79.1843 36.701 79.4813 37.361 79.7013C37.559 79.3493 37.955 78.8433 38.23 78.5793C37.097 78.2933 36.008 77.7543 35.216 77.0943H37.009Z" fill="#DB8855"/>
<path d="M47.558 72.6503C47.327 73.2443 46.887 74.0583 46.535 74.5863L47.547 74.9603C47.932 74.4983 48.438 73.7723 48.889 73.0793L47.558 72.6503ZM48.856 76.3243C48.207 75.8183 46.997 75.1363 45.963 74.6413C46.161 73.9153 46.216 73.0683 46.249 72.0563H44.951C44.885 74.5423 44.731 75.6973 42.091 76.3243C42.333 76.5773 42.674 77.0723 42.795 77.3913C44.203 77.0173 45.028 76.4673 45.523 75.6973C46.491 76.2143 47.514 76.8633 48.053 77.3363L48.856 76.3243ZM43.147 80.0753C43.565 79.4813 43.928 78.5573 44.104 77.7653L42.927 77.5233C42.74 78.2603 42.388 79.0963 42.003 79.5473L43.147 80.0753ZM43.29 75.0373C43.686 74.4983 44.038 73.6403 44.214 72.9033L43.081 72.6613C42.894 73.3763 42.542 74.1573 42.168 74.6083L43.29 75.0373ZM42.223 73.4753C41.794 73.1013 40.881 72.5843 40.232 72.2653L39.429 73.1563C40.078 73.5193 40.98 74.0803 41.387 74.4763L42.223 73.4753ZM41.706 76.3903C41.244 76.0383 40.32 75.5323 39.682 75.2243L38.868 76.1043C39.528 76.4673 40.419 77.0063 40.848 77.3693L41.706 76.3903ZM40.947 77.8643C40.364 79.1183 39.627 80.4603 39.099 81.2743L40.287 82.1323C40.881 81.0763 41.486 79.8553 41.981 78.7113L40.947 77.8643ZM47.69 79.9213C48.075 79.4263 48.57 78.6123 48.999 77.8753L47.646 77.4353C47.426 78.0733 46.997 78.9203 46.645 79.4923C46.414 79.1293 46.238 78.7113 46.106 78.2493C46.161 77.7653 46.183 77.2373 46.205 76.6763H44.907C44.83 79.3163 44.665 80.5263 41.673 81.1863C41.937 81.4613 42.267 81.9783 42.388 82.3193C44.192 81.8573 45.127 81.1643 45.622 80.1523C46.216 81.2193 47.107 81.9343 48.559 82.2863C48.713 81.9453 49.054 81.4283 49.34 81.1643C48.064 80.9333 47.217 80.3943 46.689 79.5583L47.69 79.9213Z" fill="#DB8855"/>
<path d="M53.278 74.6853L53.036 74.7293H50.165V76.0493H52.552C52.057 77.9743 51.089 79.4813 49.813 80.3393C50.143 80.5373 50.671 81.0653 50.902 81.3733C52.453 80.2293 53.663 77.9963 54.169 75.0153L53.278 74.6853ZM58.789 73.7613C58.228 74.5423 57.359 75.4773 56.578 76.2033C56.259 75.4993 56.006 74.7623 55.797 73.9923V72.0563H54.411V80.6253C54.411 80.8123 54.334 80.8893 54.114 80.8893C53.883 80.8893 53.19 80.9003 52.464 80.8673C52.673 81.2523 52.926 81.9123 52.981 82.3303C53.982 82.3303 54.697 82.2753 55.17 82.0333C55.621 81.8133 55.797 81.4173 55.797 80.6253V77.3803C56.589 79.1733 57.7 80.6253 59.295 81.5273C59.526 81.1313 59.977 80.5813 60.307 80.3063C58.954 79.6683 57.92 78.6013 57.139 77.2813C58.03 76.5883 59.13 75.5543 60.01 74.6193L58.789 73.7613Z" fill="#DB8855"/>
<path d="M66.357 73.7173C66.181 74.0033 65.961 74.2893 65.741 74.5313H63.673C63.915 74.2673 64.157 73.9923 64.377 73.7173H66.357ZM68.667 76.4123H66.676V75.5983H68.667V76.4123ZM68.667 78.2163H66.676V77.4023H68.667V78.2163ZM63.541 77.4023H65.411V78.2163H63.541V77.4023ZM63.541 75.5983H65.411V76.4123H63.541V75.5983ZM62.276 79.2833H69.976V74.5313H67.347C67.688 74.0913 68.007 73.6073 68.227 73.1893L67.303 72.6283L67.094 72.6833H65.114C65.202 72.5403 65.29 72.3973 65.378 72.2543L63.937 71.9683C63.365 72.9913 62.353 74.2013 60.934 75.0923C61.231 75.3123 61.671 75.7853 61.869 76.1043C62.012 76.0053 62.144 75.9063 62.276 75.7963V79.2833ZM62.078 82.3303C62.705 81.7693 63.288 80.8343 63.629 79.9323L62.342 79.5913C62.023 80.3943 61.429 81.2083 60.857 81.6593L62.078 82.3303ZM64.234 79.9763C64.355 80.7023 64.443 81.6373 64.443 82.1873L65.763 82.0223C65.752 81.4723 65.62 80.5703 65.477 79.8553L64.234 79.9763ZM66.335 80.0093C66.632 80.7023 66.951 81.6153 67.061 82.1543L68.337 81.8463C68.194 81.2853 67.853 80.3943 67.534 79.7343L66.335 80.0093ZM68.447 79.9763C69.019 80.7023 69.712 81.7033 69.976 82.3303L71.263 81.7473C70.955 81.0873 70.218 80.1413 69.646 79.4813L68.447 79.9763Z" fill="#DB8855"/>
<path d="M80.085 75.3563H77.61V74.9383H79.634V74.2343H77.61V73.7723H76.422V74.2343H74.486V74.9383H76.422V75.3563H73.969V76.0933H80.085V75.3563ZM75.619 77.0943H78.457V77.6443H75.619V77.0943ZM77.709 78.3043H78.996C78.765 78.4803 78.512 78.6673 78.281 78.8213C78.05 78.6673 77.852 78.5023 77.676 78.3373L77.709 78.3043ZM79.601 78.1283V76.4233H74.53V78.3043H76.257C75.553 78.7993 74.618 79.1953 73.716 79.4593C73.936 79.6573 74.288 80.0753 74.42 80.2843C75.047 80.0533 75.696 79.7453 76.301 79.3713V80.5153H77.445V79.2833C78.072 79.8223 78.864 80.2623 79.667 80.5263C79.799 80.2733 80.107 79.8883 80.327 79.6903C79.887 79.5913 79.436 79.4263 79.029 79.2393C79.392 79.0303 79.799 78.7663 80.151 78.4913L79.601 78.1283ZM73.595 80.7573V73.6403H80.47V80.7573H73.595ZM72.363 72.4633V82.3193H73.595V81.9233H80.47V82.3193H81.746V72.4633H72.363Z" fill="#DB8855"/>
<path d="M86.278 74.6853L86.036 74.7293H83.165V76.0493H85.552C85.057 77.9743 84.089 79.4813 82.813 80.3393C83.143 80.5373 83.671 81.0653 83.902 81.3733C85.453 80.2293 86.663 77.9963 87.169 75.0153L86.278 74.6853ZM91.789 73.7613C91.228 74.5423 90.359 75.4773 89.578 76.2033C89.259 75.4993 89.006 74.7623 88.797 73.9923V72.0563H87.411V80.6253C87.411 80.8123 87.334 80.8893 87.114 80.8893C86.883 80.8893 86.19 80.9003 85.464 80.8673C85.673 81.2523 85.926 81.9123 85.981 82.3303C86.982 82.3303 87.697 82.2753 88.17 82.0333C88.621 81.8133 88.797 81.4173 88.797 80.6253V77.3803C89.589 79.1733 90.7 80.6253 92.295 81.5273C92.526 81.1313 92.977 80.5813 93.307 80.3063C91.954 79.6683 90.92 78.6013 90.139 77.2813C91.03 76.5883 92.13 75.5543 93.01 74.6193L91.789 73.7613Z" fill="#DB8855"/>
<path d="M96.277 76.2143C96.288 75.8183 96.299 75.4223 96.31 75.0263H98.081L97.993 75.1143C98.29 75.2793 98.796 75.6203 99.016 75.8183C99.324 75.4663 99.632 75.0153 99.918 74.5203H104.043V73.3433H100.49C100.633 73.0023 100.765 72.6393 100.864 72.2873L99.676 72.0233C99.434 72.9033 99.027 73.7943 98.521 74.4873V73.8163H97.091V72.0563H95.826V73.8163H94.011V75.0263H95.078C95.045 77.5343 94.946 79.9433 93.835 81.4173C94.165 81.6263 94.55 82.0223 94.748 82.3303C95.672 81.0873 96.046 79.3383 96.2 77.4023H97.146C97.069 79.8553 96.948 80.7683 96.772 80.9993C96.673 81.1313 96.585 81.1643 96.442 81.1643C96.277 81.1643 95.969 81.1643 95.617 81.1203C95.804 81.4503 95.925 81.9453 95.947 82.3083C96.387 82.3303 96.805 82.3193 97.08 82.2643C97.399 82.2203 97.619 82.1103 97.839 81.8133C98.147 81.3953 98.268 80.1083 98.389 76.7313C98.4 76.5663 98.411 76.2143 98.411 76.2143H96.277ZM104.087 79.0743V77.9083H102.118V76.7753H103.922V75.6313H100.864C100.952 75.3893 101.04 75.1363 101.106 74.8833L99.929 74.6193C99.698 75.5543 99.269 76.4893 98.708 77.1053C98.994 77.2593 99.5 77.5783 99.72 77.7763C99.94 77.5013 100.16 77.1493 100.358 76.7753H100.875V77.9083H98.774V79.0743H100.743C100.523 79.8883 99.94 80.7683 98.411 81.4173C98.697 81.6373 99.082 82.0333 99.247 82.3083C100.468 81.7033 101.183 80.9443 101.601 80.1743C102.063 81.0983 102.712 81.8573 103.559 82.3083C103.746 81.9893 104.109 81.5383 104.384 81.3073C103.405 80.8893 102.657 80.0533 102.228 79.0743H104.087Z" fill="#DB8855"/>
<path d="M113.624 79.7563V80.7133H111.38V79.7563H113.624ZM113.866 74.2563V75.0373H110.731V74.2563H113.866ZM113.162 76.9623H111.38V76.0603H113.162V76.9623ZM108.102 75.9723V76.5003H106.749V75.9723H108.102ZM106.749 77.8973V77.3363H108.102V77.8973H106.749ZM114.372 77.9963V75.2573H115.076V73.1893H112.887V72.0453H111.633V73.1893H109.565V73.7173C109.169 73.1673 108.476 72.5183 107.893 72.0563H106.716C106.353 72.9143 105.693 73.9483 104.703 74.7183C104.967 74.8833 105.341 75.3123 105.506 75.5653L105.583 75.4993V80.6583C105.341 80.7023 105.121 80.7463 104.923 80.7793L105.275 81.9783C106.166 81.7473 107.277 81.4393 108.366 81.1203C108.498 81.4503 108.597 81.7473 108.663 82.0003L109.774 81.4943C109.576 80.7793 109.037 79.7343 108.509 78.9423L107.486 79.3823C107.629 79.6243 107.772 79.8773 107.915 80.1413C107.519 80.2403 107.123 80.3283 106.749 80.4163V78.8323H109.246V75.0373H108.102V74.1243H107.035V75.0373H106.078C106.694 74.4103 107.156 73.7503 107.497 73.1563C108.036 73.6513 108.597 74.3773 108.861 74.8503L109.565 74.0363V75.2573H110.192V82.3193H111.38V81.8133H113.624V82.2533H114.834V78.6783H111.38V77.9963H114.372Z" fill="#DB8855"/>
<path d="M31.5928 89.9153L30.7238 89.1013C30.5148 89.1673 29.9098 89.2003 29.6018 89.2003H23.6728C23.2108 89.2003 22.7488 89.1563 22.3308 89.0903V90.6193C22.8478 90.5753 23.2108 90.5423 23.6728 90.5423H29.4038C29.1178 91.0813 28.2598 92.0493 27.3798 92.5883L28.5238 93.5013C29.6018 92.7313 30.6468 91.3453 31.1638 90.4873C31.2628 90.3223 31.4718 90.0583 31.5928 89.9153ZM27.1048 91.4003H25.5098C25.5648 91.7523 25.5868 92.0493 25.5868 92.3903C25.5868 94.1943 25.3228 95.3603 23.9258 96.3283C23.5188 96.6253 23.1228 96.8123 22.7708 96.9333L24.0578 97.9783C27.0498 96.3723 27.1048 94.1283 27.1048 91.4003Z" fill="#DB8855"/>
<path d="M37.843 88.7823L36.237 88.2543C36.138 88.6283 35.907 89.1343 35.742 89.4093C35.192 90.3553 34.235 91.7743 32.31 92.9513L33.542 93.8643C34.62 93.1273 35.577 92.1593 36.314 91.2023H39.405C39.229 92.0273 38.591 93.3473 37.843 94.2053C36.886 95.2943 35.665 96.2513 33.41 96.9223L34.708 98.0883C36.776 97.2743 38.107 96.2623 39.152 94.9863C40.142 93.7543 40.769 92.2913 41.066 91.3123C41.154 91.0373 41.308 90.7293 41.429 90.5203L40.307 89.8273C40.054 89.9043 39.691 89.9593 39.35 89.9593H37.139C37.15 89.9373 37.161 89.9263 37.172 89.9043C37.304 89.6623 37.59 89.1673 37.843 88.7823Z" fill="#DB8855"/>
<path d="M53.045 89.9153L52.176 89.1013C51.967 89.1673 51.362 89.2003 51.054 89.2003H45.125C44.663 89.2003 44.201 89.1563 43.783 89.0903V90.6193C44.3 90.5753 44.663 90.5423 45.125 90.5423H50.856C50.57 91.0813 49.712 92.0493 48.832 92.5883L49.976 93.5013C51.054 92.7313 52.099 91.3453 52.616 90.4873C52.715 90.3223 52.924 90.0583 53.045 89.9153ZM48.557 91.4003H46.962C47.017 91.7523 47.039 92.0493 47.039 92.3903C47.039 94.1943 46.775 95.3603 45.378 96.3283C44.971 96.6253 44.575 96.8123 44.223 96.9333L45.51 97.9783C48.502 96.3723 48.557 94.1283 48.557 91.4003Z" fill="#DB8855"/>
<path d="M59.04 91.7743C58.27 91.7743 57.632 92.4123 57.632 93.1823C57.632 93.9523 58.27 94.5903 59.04 94.5903C59.81 94.5903 60.448 93.9523 60.448 93.1823C60.448 92.4123 59.81 91.7743 59.04 91.7743Z" fill="#DB8855"/>
<path d="M67.994 96.3063C67.994 96.7463 67.95 97.4063 67.884 97.8463H69.6C69.556 97.3953 69.501 96.6253 69.501 96.3063V93.1933C70.689 93.6003 72.339 94.2383 73.472 94.8323L74.099 93.3143C73.087 92.8193 70.975 92.0383 69.501 91.6093V89.9813C69.501 89.5303 69.556 89.0463 69.6 88.6613H67.884C67.961 89.0463 67.994 89.5963 67.994 89.9813V96.3063Z" fill="#DB8855"/>
<path d="M78.994 96.3063C78.994 96.7463 78.95 97.4063 78.884 97.8463H80.6C80.556 97.3953 80.501 96.6253 80.501 96.3063V93.1933C81.689 93.6003 83.339 94.2383 84.472 94.8323L85.099 93.3143C84.087 92.8193 81.975 92.0383 80.501 91.6093V89.9813C80.501 89.5303 80.556 89.0463 80.6 88.6613H78.884C78.961 89.0463 78.994 89.5963 78.994 89.9813V96.3063Z" fill="#DB8855"/>
<path d="M97.5352 88.3753L96.7212 88.7163C97.0622 89.2003 97.2932 89.6403 97.5792 90.2343L98.4042 89.8713C98.1952 89.4313 97.7992 88.7713 97.5352 88.3753ZM98.7452 87.8803L97.9422 88.2433C98.3052 88.7273 98.5472 89.1343 98.8442 89.7283L99.6692 89.3323C99.4382 88.9143 99.0312 88.2653 98.7452 87.8803ZM90.2312 91.8183L90.3082 93.1163C91.9692 93.2153 93.7402 93.2153 95.0822 93.1273C95.2692 93.5013 95.4672 93.8863 95.6982 94.2713C95.3792 94.2383 94.7742 94.1833 94.3232 94.1393L94.2132 95.1953C95.0052 95.2723 96.2042 95.4153 96.8202 95.5363L97.4802 94.5353C97.2822 94.3483 97.1392 94.1833 96.9852 93.9633C96.7982 93.6773 96.6002 93.3363 96.4242 92.9843C97.0842 92.8963 97.6782 92.7753 98.1842 92.6433L97.9642 91.3453C97.4252 91.4993 96.7652 91.6863 95.8632 91.7963C95.7972 91.6203 95.7312 91.4443 95.6762 91.2903C95.6212 91.1253 95.5662 90.9493 95.5112 90.7733C96.1382 90.6963 96.6442 90.5863 97.0622 90.4873L96.8862 89.2223C96.4572 89.3543 95.8852 89.4973 95.1922 89.5853C95.1042 89.2113 95.0382 88.8153 94.9832 88.4193L93.5092 88.5843C93.6412 88.9583 93.7622 89.3213 93.8612 89.6733C92.8602 89.7063 91.7382 89.6623 90.4292 89.5193L90.5062 90.7733C91.8922 90.9053 93.1682 90.9273 94.2132 90.8723C94.2792 91.0703 94.3452 91.2793 94.4332 91.5323C94.4772 91.6533 94.5212 91.7853 94.5652 91.9063C93.3552 91.9833 91.8702 91.9723 90.2312 91.8183ZM92.3432 94.3703L90.9792 94.1173C90.7262 94.6343 90.4842 95.1733 90.4952 95.8883C90.5282 97.4503 91.8922 98.0993 94.0922 98.0993C94.9942 98.0993 95.9952 98.0223 96.7652 97.9013L96.8422 96.4933C96.0612 96.6583 95.1152 96.7353 94.0812 96.7353C92.6292 96.7353 91.8592 96.4053 91.8592 95.5913C91.8592 95.1183 92.0792 94.7333 92.3432 94.3703Z" fill="#DB8855"/>
<path d="M105.18 91.1913L106.071 91.9943C106.511 91.6863 107.358 91.0043 107.655 90.7623L107.325 89.9043C106.577 89.4423 105.4 88.9363 104.487 88.5953L103.673 89.6073C104.509 89.9043 105.4 90.3663 105.873 90.6853C105.719 90.8063 105.444 91.0043 105.18 91.1913ZM103.31 96.2623L103.519 97.7143C104.058 97.8023 104.685 97.8793 105.301 97.8793C106.434 97.8793 107.49 97.4393 107.49 95.9653C107.49 94.9423 106.841 93.9633 105.653 92.7753C105.378 92.4783 105.092 92.2143 104.762 91.8843L103.684 92.7863C104.058 93.0613 104.421 93.3803 104.707 93.6553C105.202 94.1503 105.961 95.1403 105.961 95.8003C105.961 96.3173 105.565 96.5263 105.004 96.5263C104.476 96.5263 103.915 96.4383 103.31 96.2623ZM109.404 97.1093L110.735 96.3943C110.405 95.3713 109.547 93.6883 108.865 92.8523L107.677 93.4793C108.414 94.4033 109.14 96.0093 109.404 97.1093ZM103.981 95.0193L103.145 93.9413C102.496 94.6563 101.297 95.5913 100.34 96.0973L101.176 97.2853C102.353 96.5593 103.365 95.6793 103.981 95.0193Z" fill="#DB8855"/>
<path d="M61.3633 225.889H67.9433V223.873H66.0673V215.459H64.2333C63.5053 215.921 62.7773 216.201 61.6573 216.411V217.951H63.5753V223.873H61.3633V225.889Z" fill="#DB8855"/>
<path d="M72.7085 226.085C74.7805 226.085 76.5585 224.993 76.5585 223.047C76.5585 221.703 75.7045 220.863 74.5565 220.513V220.443C75.6625 219.995 76.2225 219.183 76.2225 218.147C76.2225 216.285 74.8085 215.277 72.6525 215.277C71.4205 215.277 70.3845 215.753 69.4185 216.565L70.6785 218.091C71.3085 217.531 71.8405 217.223 72.5405 217.223C73.3105 217.223 73.7305 217.615 73.7305 218.329C73.7305 219.155 73.1705 219.687 71.3925 219.687V221.451C73.5765 221.451 74.0525 221.983 74.0525 222.879C74.0525 223.663 73.4225 224.069 72.4565 224.069C71.6445 224.069 70.9165 223.649 70.2865 223.061L69.1385 224.629C69.8945 225.511 71.0565 226.085 72.7085 226.085Z" fill="#DB8855"/>
<path d="M81.5758 226.085C83.7598 226.085 85.2158 224.867 85.2158 223.257C85.2158 221.829 84.4598 220.961 83.4658 220.443V220.373C84.1798 219.883 84.7818 219.057 84.7818 218.063C84.7818 216.369 83.5358 215.277 81.6598 215.277C79.7418 215.277 78.3558 216.355 78.3558 218.091C78.3558 219.197 78.9018 219.995 79.7138 220.597V220.667C78.7478 221.171 78.0058 221.997 78.0058 223.299C78.0058 224.951 79.5318 226.085 81.5758 226.085ZM82.2058 219.771C81.1838 219.365 80.5398 218.917 80.5398 218.091C80.5398 217.349 81.0298 216.999 81.6038 216.999C82.3318 216.999 82.7658 217.475 82.7658 218.231C82.7658 218.763 82.5978 219.295 82.2058 219.771ZM81.6318 224.349C80.8198 224.349 80.1338 223.859 80.1338 223.005C80.1338 222.347 80.4138 221.717 80.8338 221.311C82.1078 221.857 82.9058 222.249 82.9058 223.159C82.9058 223.985 82.3598 224.349 81.6318 224.349Z" fill="#DB8855"/>
<path d="M94.083 214.745L91.633 213.989C91.479 214.535 91.143 215.263 90.891 215.655C90.149 216.831 88.931 218.651 86.453 220.177L88.287 221.591C89.603 220.681 90.947 219.337 91.969 218.007H95.567C95.385 218.735 94.853 219.771 94.237 220.667C93.425 220.135 92.613 219.631 91.969 219.253L90.457 220.807C91.087 221.213 91.913 221.787 92.753 222.403C91.675 223.467 90.205 224.517 87.797 225.273L89.771 226.981C91.843 226.183 93.383 225.049 94.587 223.803C95.161 224.265 95.665 224.699 96.029 225.035L97.653 223.103C97.261 222.795 96.715 222.389 96.113 221.955C97.079 220.583 97.751 219.155 98.115 218.119C98.269 217.699 98.479 217.279 98.661 216.971L96.953 215.907C96.589 216.019 96.029 216.089 95.567 216.089H93.243C93.453 215.725 93.775 215.179 94.083 214.745Z" fill="#DB8855"/>
<path d="M112.703 216.481L111.065 215.445C110.617 215.529 110.057 215.557 109.483 215.557H103.071C102.399 215.557 101.713 215.529 101.237 215.501C101.279 215.907 101.307 216.397 101.307 216.803V219.743C101.307 220.177 101.265 220.555 101.223 221.031H103.729C103.673 220.541 103.673 219.953 103.673 219.743V217.671H109.819C109.679 219.099 109.231 220.527 108.573 221.605C107.495 223.327 105.241 224.447 103.463 224.867L105.367 226.813C107.607 226.001 109.511 224.615 110.687 222.767C111.821 221.003 112.157 218.945 112.409 217.587C112.451 217.363 112.605 216.733 112.703 216.481Z" fill="#DB8855"/>
<path d="M115.069 219.169V221.843C115.643 221.801 116.693 221.759 117.491 221.759H124.925C125.499 221.759 126.283 221.829 126.647 221.843V219.169C126.241 219.197 125.555 219.267 124.925 219.267H117.491C116.805 219.267 115.629 219.211 115.069 219.169Z" fill="#DB8855"/>
<path d="M139.096 215.641C139.096 215.235 139.432 214.899 139.838 214.899C140.244 214.899 140.58 215.235 140.58 215.641C140.58 216.047 140.244 216.383 139.838 216.383C139.432 216.383 139.096 216.047 139.096 215.641ZM138.102 215.641C138.102 216.593 138.886 217.377 139.838 217.377C140.79 217.377 141.574 216.593 141.574 215.641C141.574 214.689 140.79 213.905 139.838 213.905C138.886 213.905 138.102 214.689 138.102 215.641ZM130.22 221.451C129.73 222.725 128.89 224.251 128.022 225.385L130.416 226.393C131.116 225.385 131.984 223.705 132.474 222.305C132.908 221.073 133.426 219.239 133.622 218.189C133.678 217.867 133.874 217.027 134 216.579L131.522 216.061C131.354 217.937 130.85 219.827 130.22 221.451ZM137.136 221.297C137.682 222.823 138.116 224.517 138.522 226.309L141.056 225.483C140.664 224.027 139.922 221.745 139.46 220.541C138.97 219.267 137.976 216.985 137.374 215.865L135.106 216.593C135.694 217.671 136.618 219.813 137.136 221.297Z" fill="#DB8855"/>
<path d="M142.932 219.169V221.843C143.506 221.801 144.556 221.759 145.354 221.759H152.788C153.362 221.759 154.146 221.829 154.51 221.843V219.169C154.104 219.197 153.418 219.267 152.788 219.267H145.354C144.668 219.267 143.492 219.211 142.932 219.169Z" fill="#DB8855"/>
<path d="M164.044 214.941L161.566 214.129C161.412 214.675 161.076 215.403 160.824 215.795C160.082 216.971 158.948 218.651 156.47 220.177L158.374 221.591C159.662 220.695 160.908 219.491 161.902 218.245H165.388C165.206 219.155 164.422 220.765 163.54 221.745C162.35 223.075 160.894 224.265 157.87 225.189L159.886 226.981C162.518 225.903 164.212 224.615 165.57 222.949C166.858 221.367 167.614 219.519 167.992 218.357C168.132 217.937 168.356 217.517 168.538 217.209L166.816 216.145C166.452 216.257 165.892 216.327 165.43 216.327H163.176C163.386 215.963 163.722 215.389 164.044 214.941Z" fill="#DB8855"/>
<path fill-rule="evenodd" clip-rule="evenodd" d="M240.13 92.1094C233.586 93.9568 228.386 96.3963 225.714 98.8554C222.373 101.93 217.524 104.056 212.147 105.612C206.739 107.177 200.607 108.217 194.546 109.007C190.242 109.568 185.923 110.009 181.904 110.419C180.27 110.586 178.687 110.748 177.173 110.91C171.865 111.481 167.493 112.058 164.634 112.88C151.57 116.636 139.849 109.48 133.586 103.357C132.943 102.729 132.463 102.442 132.094 102.311C131.753 102.191 131.394 102.163 130.905 102.26C130.376 102.366 129.727 102.611 128.838 103.037C128.179 103.354 127.464 103.732 126.626 104.175C126.33 104.331 126.018 104.496 125.688 104.669C120.642 107.315 112.662 111.158 97.9234 112.937C90.7478 113.803 86.0714 114.915 83.1763 116.104C80.1857 117.334 79.615 118.421 79.5335 118.906C79.4424 119.449 79.745 120.368 81.0656 121.711C82.305 122.971 84.0583 124.213 85.8188 125.332C86.4764 125.749 87.0964 126.137 87.6741 126.499C88.6196 127.09 89.4516 127.611 90.1488 128.075C91.283 128.831 92.2586 129.565 93.0071 130.437C94.6342 132.333 94.8719 134.518 94.8719 137.681C94.8719 146.744 92.9231 155.434 90.9036 164.439C90.3004 167.128 89.6908 169.846 89.1251 172.611C88.2721 176.778 85.4994 179.161 81.9444 180.279C78.5146 181.357 74.2946 181.296 70.0998 180.762C63.672 179.943 56.703 177.911 51.7942 176.479C50.3046 176.044 49.0047 175.665 47.9673 175.392C44.9436 174.596 41.988 173.573 39.2882 172.639L39.1789 172.601C36.4121 171.644 33.9592 170.8 31.8424 170.312C29.674 169.812 28.2003 169.775 27.2593 170.109C26.5483 170.361 25.894 170.911 25.5657 172.536C25.5879 172.604 25.7275 172.961 26.6184 173.625C27.7216 174.448 29.4845 175.354 31.8339 176.308C36.5017 178.203 43.0358 180.11 50.0452 181.888C59.7892 184.359 70.1986 186.523 77.5712 188.056C80.8343 188.734 83.5025 189.289 85.2547 189.692C91.2951 191.081 104.746 193.868 117.62 196.133C124.057 197.266 130.327 198.263 135.443 198.891C138.003 199.205 140.253 199.423 142.079 199.521C143.95 199.621 145.237 199.586 145.947 199.453C149.657 198.763 150.999 198.131 151.849 197.36C152.293 196.957 152.681 196.443 153.191 195.643C153.358 195.381 153.556 195.059 153.778 194.697C154.165 194.066 154.625 193.315 155.125 192.555C155.91 191.361 157.177 190.84 158.386 190.631C159.596 190.422 161.005 190.475 162.48 190.652C165.434 191.007 169.185 191.935 173.186 192.929L173.239 192.943C181.394 194.969 190.785 197.302 198.623 196.636C200.033 196.516 202.437 195.908 205.764 194.806C209.043 193.719 213.082 192.2 217.697 190.342C226.926 186.628 238.383 181.591 250.543 176.035C274.857 164.925 301.909 151.771 319.397 143.047C320.022 142.735 320.665 142.225 321.121 141.736C320.583 141.767 319.844 141.869 318.857 142.089C317.337 142.427 315.332 143.021 312.735 143.964C307.541 145.848 300.086 149.084 289.581 154.312C282.016 158.078 273.878 154.644 269.86 149.213C267.825 146.465 266.715 143.046 267.359 139.591C268.01 136.095 270.394 132.898 274.684 130.515C282.221 126.328 285.241 122.011 286.508 117.74C287.542 114.255 287.463 110.743 287.377 106.88C287.352 105.772 287.327 104.635 287.327 103.462C287.327 98.1776 284.559 94.6159 279.908 92.2904C275.151 89.9124 268.524 88.9096 261.323 89.0052C254.158 89.1004 246.608 90.2805 240.13 92.1094ZM322.131 141.794C322.13 141.795 322.122 141.792 322.107 141.786C322.124 141.791 322.131 141.794 322.131 141.794ZM321.684 140.943C321.688 140.924 321.692 140.913 321.693 140.913C321.694 140.913 321.692 140.922 321.684 140.943ZM281.524 89.0585C287.123 91.8581 290.94 96.5254 290.94 103.462C290.94 104.442 290.964 105.452 290.989 106.482C291.082 110.429 291.183 114.684 289.972 118.768C288.381 124.131 284.615 129.131 276.438 133.673C272.871 135.655 271.324 138.039 270.911 140.253C270.491 142.509 271.185 144.93 272.764 147.064C275.972 151.399 282.299 153.901 287.971 151.077C298.538 145.818 306.128 142.517 311.503 140.567C314.19 139.592 316.351 138.945 318.072 138.562C319.765 138.185 321.143 138.038 322.219 138.148C323.236 138.252 324.52 138.662 325.071 139.942C325.576 141.114 325.109 142.248 324.749 142.883C323.973 144.253 322.42 145.577 321.01 146.281C303.498 155.016 276.407 168.189 252.044 179.321C239.865 184.886 228.35 189.949 219.047 193.694C214.397 195.566 210.28 197.116 206.9 198.236C203.567 199.34 200.805 200.077 198.929 200.236C190.49 200.954 180.622 198.501 172.691 196.53L172.314 196.436C168.235 195.422 164.731 194.561 162.049 194.24C160.707 194.078 159.702 194.071 159.002 194.192C158.302 194.313 158.162 194.513 158.144 194.54C157.65 195.291 157.283 195.891 156.936 196.46C156.705 196.837 156.483 197.201 156.238 197.585C155.677 198.465 155.083 199.304 154.277 200.036C152.626 201.535 150.398 202.3 146.608 203.006C145.443 203.223 143.784 203.231 141.886 203.129C139.945 203.025 137.605 202.796 135.004 202.477C129.797 201.839 123.457 200.829 116.994 199.692C104.065 197.417 90.5523 194.618 84.445 193.213C82.8065 192.837 80.2259 192.3 77.0352 191.636C69.6408 190.098 58.9699 187.879 49.1569 185.39C42.1143 183.604 35.382 181.649 30.4746 179.656C28.0365 178.666 25.9345 177.622 24.4588 176.522C23.1333 175.534 21.6069 173.965 22.0074 171.904C22.5164 169.285 23.859 167.482 26.0501 166.704C28.0196 166.005 30.3628 166.263 32.654 166.791C34.9969 167.331 37.6463 168.247 40.3605 169.187L40.4153 169.206C43.1503 170.152 45.9966 171.137 48.8871 171.898C50.06 172.207 51.4654 172.616 53.0369 173.074C57.9359 174.502 64.4482 176.4 70.5564 177.178C74.5845 177.691 78.1812 177.674 80.8609 176.832C83.4153 176.029 85.0446 174.528 85.5852 171.886C86.1844 168.959 86.8162 166.138 87.432 163.389C89.4296 154.472 91.2587 146.306 91.2587 137.681C91.2587 134.558 90.96 133.6 90.265 132.79C89.8525 132.31 89.2206 131.799 88.1448 131.082C87.4845 130.642 86.7309 130.171 85.8291 129.607C85.2465 129.242 84.602 128.839 83.8808 128.381C82.07 127.23 80.0288 125.81 78.4893 124.244C77.0309 122.761 75.5702 120.69 75.9702 118.308C76.3797 115.869 78.5546 114.098 81.8027 112.763C85.1464 111.388 90.2019 110.23 97.4904 109.35C111.68 107.637 119.235 103.973 124.01 101.469C124.306 101.314 124.597 101.16 124.882 101.009C125.742 100.555 126.547 100.129 127.275 99.7798C128.247 99.3128 129.222 98.9114 130.199 98.7167C131.217 98.5141 132.248 98.5328 133.299 98.9046C134.322 99.2665 135.237 99.9178 136.112 100.773C141.992 106.522 152.413 112.634 163.635 109.407C166.847 108.484 171.537 107.882 176.787 107.318C178.338 107.151 179.945 106.987 181.591 106.819C185.592 106.411 189.828 105.978 194.079 105.424C200.072 104.643 205.994 103.631 211.143 102.141C216.324 100.642 220.537 98.7088 223.267 96.1967C226.578 93.1498 232.45 90.5231 239.148 88.632C245.913 86.7224 253.776 85.4919 261.275 85.3923C268.739 85.2931 276.029 86.3115 281.524 89.0585Z" fill="#DB8855"/>
<path fill-rule="evenodd" clip-rule="evenodd" d="M163.123 111.621C163 111.044 163.166 110.446 163.568 110.019L171.886 101.175C172.567 100.451 173.712 100.419 174.444 101.104C175.176 101.788 175.218 102.929 174.537 103.653L167.98 110.624L176.851 114.427C177.772 114.822 178.204 115.883 177.815 116.798C177.426 117.712 176.365 118.133 175.444 117.738L164.189 112.913C163.645 112.68 163.247 112.197 163.123 111.621Z" fill="#DB8855"/>
<path fill-rule="evenodd" clip-rule="evenodd" d="M87.3939 172.477C86.8296 172.355 86.3602 171.971 86.1306 171.445L81.3142 160.391C80.9175 159.481 81.3398 158.416 82.2574 158.013C83.1751 157.61 84.2407 158.021 84.6374 158.932L88.4684 167.724L95.7324 161.329C96.4848 160.667 97.6284 160.733 98.2869 161.476C98.9453 162.22 98.8692 163.36 98.1169 164.022L88.9845 172.061C88.5492 172.444 87.9581 172.599 87.3939 172.477Z" fill="#DB8855"/>
<path fill-rule="evenodd" clip-rule="evenodd" d="M189.965 198.098C189.849 198.676 189.456 199.163 188.915 199.403L177.72 204.357C176.804 204.763 175.737 204.354 175.338 203.444C174.938 202.534 175.357 201.468 176.273 201.062L185.097 197.157L178.457 190.263C177.768 189.547 177.795 188.405 178.519 187.712C179.243 187.02 180.388 187.038 181.077 187.754L189.502 196.501C189.909 196.924 190.082 197.52 189.965 198.098Z" fill="#DB8855"/>
<path fill-rule="evenodd" clip-rule="evenodd" d="M277.219 165.642C277.507 166.154 277.525 166.769 277.268 167.291L271.943 178.119C271.506 179.006 270.418 179.37 269.512 178.931C268.606 178.493 268.225 177.418 268.661 176.531L272.867 167.98L263.229 166.863C262.229 166.747 261.506 165.857 261.613 164.874C261.721 163.891 262.619 163.188 263.619 163.304L275.822 164.717C276.41 164.785 276.931 165.13 277.219 165.642Z" fill="#DB8855"/>
<path fill-rule="evenodd" clip-rule="evenodd" d="M262.282 87.5565C262.337 86.969 262.676 86.4445 263.19 86.1515L273.804 80.0969C274.672 79.6016 275.775 79.9019 276.268 80.7676C276.76 81.6333 276.455 82.7366 275.586 83.2319L267.223 88.0027L274.551 94.1907C275.312 94.8331 275.405 95.9724 274.759 96.7353C274.113 97.4982 272.972 97.5959 272.212 96.9534L262.911 89.1004C262.461 88.7204 262.226 88.144 262.282 87.5565Z" fill="#DB8855"/>
<path fill-rule="evenodd" clip-rule="evenodd" d="M61.8364 186.647C61.6318 187.199 61.1697 187.621 60.598 187.777L48.7628 191.012C47.7938 191.276 46.8003 190.715 46.5438 189.758C46.2872 188.801 46.8648 187.81 47.8338 187.545L57.1697 184.994L51.6732 177.187C51.1027 176.377 51.3084 175.255 52.1326 174.68C52.9568 174.106 54.0874 174.297 54.6579 175.108L61.6258 185.004C61.9624 185.482 62.041 186.095 61.8364 186.647Z" fill="#DB8855"/>
<path d="M117.552 109.322C117.552 113.061 114.452 116.093 110.627 116.093C106.802 116.093 103.702 113.061 103.702 109.322C103.702 105.582 106.802 102.551 110.627 102.551C114.452 102.551 117.552 105.582 117.552 109.322Z" fill="#DB8855"/>
<path d="M333.745 140.527C333.745 144.266 330.645 147.298 326.82 147.298C322.995 147.298 319.895 144.266 319.895 140.527C319.895 136.787 322.995 133.756 326.82 133.756C330.645 133.756 333.745 136.787 333.745 140.527Z" fill="#DB8855"/>
<path d="M117.552 196.46C117.552 200.2 114.452 203.231 110.627 203.231C106.802 203.231 103.702 200.2 103.702 196.46C103.702 192.721 106.802 189.689 110.627 189.689C114.452 189.689 117.552 192.721 117.552 196.46Z" fill="#DB8855"/>
<path d="M259.388 214.426C257.564 214.426 256.04 214.102 254.816 213.454C253.592 212.806 252.668 211.81 252.044 210.466C251.42 209.098 251.072 207.334 251 205.174L256.508 204.346C256.532 205.594 256.64 206.602 256.832 207.37C257.048 208.138 257.336 208.69 257.696 209.026C258.08 209.362 258.536 209.53 259.064 209.53C259.736 209.53 260.168 209.302 260.36 208.846C260.576 208.39 260.684 207.91 260.684 207.406C260.684 206.206 260.396 205.198 259.82 204.382C259.244 203.542 258.464 202.702 257.48 201.862L254.96 199.666C253.856 198.73 252.92 197.674 252.152 196.498C251.408 195.298 251.036 193.822 251.036 192.07C251.036 189.598 251.768 187.714 253.232 186.418C254.696 185.098 256.688 184.438 259.208 184.438C260.768 184.438 262.016 184.702 262.952 185.23C263.912 185.758 264.632 186.454 265.112 187.318C265.616 188.158 265.952 189.058 266.12 190.018C266.312 190.954 266.42 191.854 266.444 192.718L260.9 193.402C260.876 192.538 260.816 191.794 260.72 191.17C260.648 190.522 260.48 190.03 260.216 189.694C259.952 189.334 259.544 189.154 258.992 189.154C258.392 189.154 257.948 189.406 257.66 189.91C257.396 190.414 257.264 190.918 257.264 191.422C257.264 192.502 257.516 193.39 258.02 194.086C258.548 194.758 259.232 195.466 260.072 196.21L262.484 198.334C263.756 199.414 264.824 200.638 265.688 202.006C266.576 203.374 267.02 205.066 267.02 207.082C267.02 208.45 266.708 209.698 266.084 210.826C265.46 211.93 264.572 212.806 263.42 213.454C262.292 214.102 260.948 214.426 259.388 214.426Z" fill="#DB8855"/>
<path d="M272.768 213.994V189.622H268.376V184.834H283.604V189.622H279.248V213.994H272.768Z" fill="#DB8855"/>
<path d="M283.467 213.994L288.975 184.834H296.319L301.755 213.994H295.815L294.843 207.838H290.559L289.551 213.994H283.467ZM291.135 203.986H294.231L292.683 192.61L291.135 203.986Z" fill="#DB8855"/>
<path d="M304.699 213.994V184.834H312.727C314.695 184.834 316.399 185.05 317.839 185.482C319.279 185.914 320.395 186.694 321.187 187.822C322.003 188.926 322.411 190.498 322.411 192.538C322.411 193.738 322.315 194.806 322.123 195.742C321.931 196.678 321.571 197.494 321.043 198.19C320.539 198.862 319.807 199.426 318.847 199.882L322.843 213.994H316.183L312.979 200.926H311.143V213.994H304.699ZM311.143 197.218H312.943C313.855 197.218 314.563 197.062 315.067 196.75C315.571 196.414 315.919 195.946 316.111 195.346C316.327 194.722 316.435 193.978 316.435 193.114C316.435 191.866 316.207 190.894 315.751 190.198C315.295 189.502 314.455 189.154 313.231 189.154H311.143V197.218Z" fill="#DB8855"/>
<path d="M328.631 213.994V189.622H324.239V184.834H339.467V189.622H335.111V213.994H328.631Z" fill="#DB8855"/>
<path d="M257.37 229.329H258.189L257.565 229.654C257.773 229.914 258.007 230.226 258.202 230.512H257.37V229.329ZM259.164 230.512L259.684 230.226C259.541 229.979 259.268 229.641 259.008 229.329H259.359V227.756H257.37V226.872H259.619V225.234H253.353V226.872H255.628V227.756H253.678V229.329H255.628V230.512H253.236V232.033H259.801V230.512H259.164ZM252.924 232.514V224.766H260.074V232.514H252.924ZM251 223.037V234.893H252.924V234.256H260.074V234.893H262.102V223.037H251Z" fill="#DB8855"/>
<path d="M272.45 232.956H266.808V232.176H272.45V232.956ZM267.939 227.964H271.15V228.562H267.939V227.964ZM272.996 229.914V226.612H266.197V229.914H268.407C268.368 230.122 268.316 230.343 268.264 230.564H265.014V234.958H266.808V234.568H272.45V234.958H274.335V230.564H270.162C270.266 230.356 270.37 230.148 270.461 229.914H272.996ZM273.581 224.584C273.906 224.181 274.27 223.7 274.647 223.206L272.593 222.608C272.359 223.219 271.93 224.025 271.54 224.584H269.512L270.591 224.194C270.409 223.726 269.98 223.011 269.629 222.504L267.965 223.076C268.251 223.531 268.563 224.129 268.745 224.584H267.016L267.471 224.389C267.263 223.908 266.769 223.232 266.34 222.751L264.702 223.44C264.962 223.778 265.248 224.207 265.469 224.584H264.013V227.483H265.729V226.17H273.464V227.483H275.284V224.584H273.581Z" fill="#DB8855"/>
<path d="M288.349 227.379V225.507H283.591V222.569H281.563V225.507H276.818V227.379H280.77C279.756 229.316 278.079 231.136 276.181 232.163C276.623 232.553 277.273 233.307 277.598 233.788C279.158 232.787 280.497 231.318 281.563 229.602V234.919H283.591V229.511C284.67 231.227 286.022 232.722 287.556 233.723C287.868 233.203 288.518 232.449 288.973 232.072C287.101 231.058 285.359 229.264 284.306 227.379H288.349Z" fill="#DB8855"/>
<path d="M297.683 231.058V231.474H293.302V231.058H297.683ZM293.302 233.177V232.774H297.683V233.177H293.302ZM291.378 234.906H293.302V234.607H297.683V234.854H299.711V229.628H291.378V234.906ZM298.749 226.001H296.448V225.585H298.749V226.001ZM298.749 227.743H296.448V227.314H298.749V227.743ZM292.262 227.314H294.615V227.743H292.262V227.314ZM292.262 225.585H294.615V226.001H292.262V225.585ZM298.892 224.142C299.217 223.791 299.581 223.362 299.932 222.881L297.891 222.426C297.657 222.92 297.241 223.583 296.864 224.051L297.215 224.142H293.926L294.342 223.999C294.16 223.531 293.731 222.907 293.302 222.465L291.573 222.972C291.859 223.31 292.145 223.752 292.353 224.142H290.442V229.186H300.673V224.142H298.892Z" fill="#DB8855"/>
<path d="M303.975 223.193V227.73C303.975 229.836 303.806 232.02 302.337 233.671C302.831 233.97 303.611 234.62 303.975 235.049C305.743 233.047 305.925 230.304 305.925 227.743V223.193H303.975ZM307.875 223.765V233.593H309.812V223.765H307.875ZM311.619 223.18V234.88H313.621V223.18H311.619Z" fill="#DB8855"/>
<path d="M322.409 223.622C323.358 225.416 324.775 227.379 326.01 228.744C326.374 228.224 327.102 227.47 327.609 227.08C326.426 225.975 325.022 224.285 324.32 222.855L322.409 223.622ZM318.743 222.816C318.106 224.558 316.91 226.3 315.597 227.301C316.117 227.613 317.04 228.315 317.443 228.718C318.743 227.496 320.108 225.468 320.927 223.427L318.743 222.816ZM322.695 230.213C323.111 230.798 323.553 231.474 323.969 232.15C322.708 232.215 321.434 232.28 320.238 232.332C320.992 231.019 321.798 229.42 322.435 227.886L320.16 227.34C319.692 228.952 318.873 230.915 318.054 232.423C317.391 232.462 316.767 232.475 316.221 232.501L316.468 234.503C318.756 234.373 321.941 234.191 324.996 233.97C325.191 234.334 325.347 234.685 325.464 234.984L327.44 233.944C326.829 232.657 325.659 230.798 324.541 229.368L322.695 230.213Z" fill="#DB8855"/>
<path d="M335.37 226.222H337.593V225.247H335.37V224.805H333.667V225.247H331.561V226.222H333.667V226.547H331.015V227.561H338.048V226.547H335.37V226.222ZM335.929 229.186H333.147V228.744H335.929V229.186ZM335.552 230.083H336.605C336.41 230.239 336.189 230.395 335.994 230.538C335.799 230.408 335.63 230.278 335.474 230.148L335.552 230.083ZM330.69 232.813V231.253C330.989 231.526 331.47 232.111 331.678 232.41C332.289 232.189 332.913 231.903 333.524 231.565V232.579H335.175V231.487C335.825 231.994 336.579 232.41 337.385 232.657C337.593 232.306 338.022 231.76 338.334 231.487C337.905 231.396 337.489 231.253 337.086 231.097C337.463 230.889 337.866 230.629 338.243 230.343L337.567 229.901V227.847H331.6V230.083H333.407C332.627 230.564 331.652 230.967 330.69 231.24V224.714H338.373V232.813H330.69ZM328.922 223.024V234.932H330.69V234.503H338.373V234.932H340.219V223.024H328.922Z" fill="#DB8855"/>
<path d="M261.905 245.026L260.345 244.025C259.942 244.129 259.435 244.142 259.149 244.142H253.416C252.987 244.142 252.129 244.077 251.726 244.025V246.248C252.064 246.222 252.779 246.183 253.416 246.183H259.136C258.967 247.223 258.538 248.51 257.706 249.537C256.679 250.811 255.21 251.955 252.597 252.54L254.313 254.425C256.601 253.684 258.434 252.345 259.604 250.772C260.722 249.264 261.255 247.288 261.567 246.066C261.645 245.78 261.762 245.312 261.905 245.026Z" fill="#DB8855"/>
<path d="M265.987 243.544V245.572C266.377 245.533 267.001 245.52 267.443 245.52H272.344C272.838 245.52 273.54 245.546 273.904 245.572V243.544C273.527 243.596 272.786 243.622 272.37 243.622H267.443C266.988 243.622 266.351 243.596 265.987 243.544ZM275.087 247.522L273.696 246.651C273.488 246.742 273.098 246.807 272.604 246.807H266.416C265.974 246.807 265.363 246.768 264.765 246.716V248.744C265.35 248.692 266.091 248.679 266.416 248.679H272.331C272.11 249.277 271.759 249.927 271.122 250.564C270.186 251.5 268.678 252.358 266.65 252.787L268.223 254.568C269.887 254.087 271.577 253.138 272.864 251.695C273.826 250.616 274.372 249.394 274.801 248.146C274.853 247.99 274.983 247.717 275.087 247.522Z" fill="#DB8855"/>
<path d="M288.061 244.948L286.54 243.986C286.124 244.064 285.604 244.09 285.071 244.09H279.117C278.493 244.09 277.856 244.064 277.414 244.038C277.453 244.415 277.479 244.87 277.479 245.247V247.977C277.479 248.38 277.44 248.731 277.401 249.173H279.728C279.676 248.718 279.676 248.172 279.676 247.977V246.053H285.383C285.253 247.379 284.837 248.705 284.226 249.706C283.225 251.305 281.132 252.345 279.481 252.735L281.249 254.542C283.329 253.788 285.097 252.501 286.189 250.785C287.242 249.147 287.554 247.236 287.788 245.975C287.827 245.767 287.97 245.182 288.061 244.948Z" fill="#DB8855"/>
<path d="M290.258 247.444V249.927C290.791 249.888 291.766 249.849 292.507 249.849H299.41C299.943 249.849 300.671 249.914 301.009 249.927V247.444C300.632 247.47 299.995 247.535 299.41 247.535H292.507C291.87 247.535 290.778 247.483 290.258 247.444Z" fill="#DB8855"/>
<path d="M312.57 244.168C312.57 243.791 312.882 243.479 313.259 243.479C313.636 243.479 313.948 243.791 313.948 244.168C313.948 244.545 313.636 244.857 313.259 244.857C312.882 244.857 312.57 244.545 312.57 244.168ZM311.647 244.168C311.647 245.052 312.375 245.78 313.259 245.78C314.143 245.78 314.871 245.052 314.871 244.168C314.871 243.284 314.143 242.556 313.259 242.556C312.375 242.556 311.647 243.284 311.647 244.168ZM304.328 249.563C303.873 250.746 303.093 252.163 302.287 253.216L304.51 254.152C305.16 253.216 305.966 251.656 306.421 250.356C306.824 249.212 307.305 247.509 307.487 246.534C307.539 246.235 307.721 245.455 307.838 245.039L305.537 244.558C305.381 246.3 304.913 248.055 304.328 249.563ZM310.75 249.42C311.257 250.837 311.66 252.41 312.037 254.074L314.39 253.307C314.026 251.955 313.337 249.836 312.908 248.718C312.453 247.535 311.53 245.416 310.971 244.376L308.865 245.052C309.411 246.053 310.269 248.042 310.75 249.42Z" fill="#DB8855"/>
<path d="M316.132 247.444V249.927C316.665 249.888 317.64 249.849 318.381 249.849H325.284C325.817 249.849 326.545 249.914 326.883 249.927V247.444C326.506 247.47 325.869 247.535 325.284 247.535H318.381C317.744 247.535 316.652 247.483 316.132 247.444Z" fill="#DB8855"/>
<path d="M335.736 243.518L333.435 242.764C333.292 243.271 332.98 243.947 332.746 244.311C332.057 245.403 331.004 246.963 328.703 248.38L330.471 249.693C331.667 248.861 332.824 247.743 333.747 246.586H336.984C336.815 247.431 336.087 248.926 335.268 249.836C334.163 251.071 332.811 252.176 330.003 253.034L331.875 254.698C334.319 253.697 335.892 252.501 337.153 250.954C338.349 249.485 339.051 247.769 339.402 246.69C339.532 246.3 339.74 245.91 339.909 245.624L338.31 244.636C337.972 244.74 337.452 244.805 337.023 244.805H334.93C335.125 244.467 335.437 243.934 335.736 243.518Z" fill="#DB8855"/>
</g>
</svg>
