<svg xmlns="http://www.w3.org/2000/svg" width="45" height="45" viewBox="0 0 45 45">
  <g id="グループ_65" data-name="グループ 65" transform="translate(-981 -60)">
    <path id="パス_8" data-name="パス 8" d="M1049.028,346.214s-.956-8.828,5.9-10.985,10.11,2.529,10.11,2.529,4.681-1.292,5.663-2.377a8.465,8.465,0,0,1-3.823,5.057A11.143,11.143,0,0,0,1072,339.1a16.536,16.536,0,0,1-4.365,4.754,27.7,27.7,0,0,1-13.121,24.549c-14.494,9.1-27.515-.4-27.515-.4a18.29,18.29,0,0,0,13.6-4.1s-6.634-.346-8.685-6.333a10.133,10.133,0,0,0,4.134-.315,11.328,11.328,0,0,1-7.7-9.485,7.793,7.793,0,0,0,4.349,1.1s-6.624-4.2-2.9-12.924c0,0,6.716,10.463,19.226,10.264" transform="translate(-46 -270.662)" fill="#fff"/>
    <rect id="長方形_71" data-name="長方形 71" width="45" height="45" transform="translate(981 60)" fill="none"/>
  </g>
</svg>
