<svg width="150" height="150" viewBox="0 0 150 150" fill="none" xmlns="http://www.w3.org/2000/svg">
<path d="M129.294 109.494L129.564 107.82L129.938 105.483C130.02 104.951 129.611 104.47 129.072 104.47C128.533 104.47 128.123 103.99 128.205 103.457L129.376 96.1087C129.458 95.5759 129.048 95.0957 128.51 95.0957H125.301C124.873 95.0957 124.505 95.406 124.434 95.8335L123.058 104.47L122.736 106.479L121.512 114.173C121.43 114.706 121.84 115.186 122.379 115.186H124.124C124.551 115.186 124.92 114.876 124.991 114.448L125.137 113.511H124.13L124.92 108.557C124.991 108.13 125.354 107.82 125.787 107.82H126.021C126.56 107.82 126.97 108.3 126.888 108.833L126.677 110.156C126.595 110.689 127.005 111.169 127.544 111.169H129.289C129.716 111.169 130.085 110.859 130.155 110.431L130.302 109.494H129.294Z" fill="#C83C28"/>
<path d="M67.5785 101.437C66.2141 101.437 64.8908 101.893 63.7607 102.666C63.5089 102.836 63.1751 102.818 62.9409 102.619C62.0626 101.882 60.9032 101.437 59.5682 101.437C56.2598 101.437 53.1505 104.118 52.6235 107.427L51.5168 114.371C51.4466 114.793 51.7745 115.179 52.2078 115.179H54.7666C55.1121 115.179 55.399 114.928 55.4576 114.594L56.5174 107.936C56.6931 106.824 57.7412 105.916 58.8596 105.916C59.978 105.916 60.7334 106.818 60.5577 107.936L59.533 114.371C59.4628 114.793 59.7907 115.179 60.224 115.179H62.7828C63.1283 115.179 63.4152 114.928 63.4738 114.594L64.5336 107.936C64.7093 106.824 65.7574 105.916 66.8758 105.916C67.9942 105.916 68.7496 106.818 68.5739 107.936L67.5492 114.371C67.4789 114.793 67.8068 115.179 68.2401 115.179H70.799C71.1445 115.179 71.4314 114.928 71.49 114.594L72.6318 107.427C73.1588 104.118 70.9044 101.437 67.596 101.437H67.5785Z" fill="#C83C28"/>
<path d="M114.164 101.367C113.795 101.367 113.426 101.402 113.063 101.466C112.595 101.554 112.179 101.144 112.255 100.67L113.549 92.5542C113.619 92.1326 113.291 91.7461 112.858 91.7461H110.299C109.954 91.7461 109.667 91.9979 109.608 92.3316L107.213 107.351L106.095 114.366C106.025 114.787 106.353 115.174 106.786 115.174H109.345C109.69 115.174 109.977 114.922 110.036 114.588L111.107 107.86C111.283 106.748 112.331 105.84 113.449 105.84C114.568 105.84 115.323 106.742 115.148 107.86L114.123 114.296C114.053 114.717 114.38 115.104 114.814 115.104H117.373C117.718 115.104 118.005 114.852 118.064 114.518L119.205 107.351C119.732 104.043 117.478 101.361 114.17 101.361L114.164 101.367Z" fill="#C83C28"/>
<path d="M101.177 109.622C100.931 109.587 100.679 109.681 100.527 109.88C99.8182 110.817 98.6939 111.443 97.5287 111.443C95.7603 111.443 94.5541 110.009 94.8352 108.241C95.1162 106.472 96.7792 105.038 98.5534 105.038C99.6601 105.038 100.544 105.6 100.983 106.455C101.124 106.724 101.405 106.888 101.71 106.847L104.304 106.478C104.708 106.419 104.983 106.027 104.889 105.629C104.263 103.094 102.061 101.302 99.1507 101.302C95.3153 101.302 91.7142 104.411 91.0994 108.246C90.4904 112.082 93.1019 115.191 96.9373 115.191C99.7889 115.191 102.512 113.469 103.97 111.004C104.222 110.583 103.946 110.044 103.46 109.974L101.177 109.634V109.622Z" fill="#C83C28"/>
<path d="M86.4492 101.366C86.1038 101.366 85.8168 101.618 85.7583 101.952L85.7114 102.25C84.7804 101.647 83.6386 101.296 82.3562 101.296C78.5209 101.296 74.9198 104.405 74.3049 108.241C73.696 112.076 76.3075 115.185 80.1429 115.185C81.4252 115.185 82.6724 114.834 83.8025 114.231L83.7908 114.307C83.7206 114.728 84.0485 115.115 84.4818 115.115H87.0406C87.3861 115.115 87.673 114.863 87.7316 114.529L89.699 102.18C89.7693 101.758 89.4414 101.372 89.0081 101.372H86.4492V101.366ZM80.7401 111.443C78.9718 111.443 77.7655 110.009 78.0466 108.241C78.3277 106.472 79.9906 105.038 81.7648 105.038C83.539 105.038 84.7394 106.472 84.4584 108.241C84.1773 110.009 82.5143 111.443 80.7401 111.443Z" fill="#C83C28"/>
<path d="M127.427 55.9866C125.389 55.2371 120.88 52.4558 101.985 48.7609C85.8762 45.6107 60.2584 34.9771 41.9599 33.6479C39.12 33.443 36.3972 36.2126 36.0049 39.6556C35.5482 43.6549 35.2495 47.098 34.3244 51.1383C33.2469 55.8051 32.9425 57.4739 33.0596 59.7517C33.1474 61.4557 34.9392 63.0718 36.6724 63.5519C37.1467 63.6808 39.7231 64.0028 43.5292 64.5239L36.3562 73.0554C34.8631 74.8355 34.9041 77.4178 36.3152 79.3032C36.8364 80 37.0062 80.8257 36.7895 81.5108L15.2237 105.641C14.808 106.186 14.9836 107.093 15.6512 107.656L19.1293 110.531C19.832 111.122 20.7689 111.157 21.2022 110.583L28.6211 101.22L28.0297 104.939C27.0226 111.245 31.3263 116.363 37.6327 116.363C43.9391 116.363 49.8707 111.251 50.872 104.939L53.0678 91.1723C53.1556 90.6395 52.7399 90.1535 52.2012 90.1535H48.2487C47.8154 90.1535 47.4524 90.4697 47.3821 90.8913L45.2507 104.259C44.7472 107.415 41.7843 109.968 38.6282 109.968C35.472 109.968 33.3231 107.41 33.8266 104.259L35.7472 92.2205L41.4212 85.0592C41.9951 84.825 42.7211 84.9128 43.377 85.27C45.4967 86.4294 48.1375 86.0488 49.6658 84.2336L63.274 68.049C63.3618 67.9436 63.4379 67.8264 63.5023 67.7093C70.81 69.1147 78.2523 70.8889 83.8853 73.0496C98.079 78.4952 108.285 79.8536 116.231 81.622C121.806 82.8634 124.411 84.0989 126.379 80.2401C127.38 78.2844 133.704 67.0418 134.693 64.1433C136.263 59.5409 131.496 57.4739 127.433 55.9749L127.427 55.9866ZM58.3261 62.7205H58.3143L53.0385 61.3093L65.7684 42.7473L78.1235 46.0733C76.5308 49.001 74.9674 52.1044 73.5269 55.0146C72.186 57.7316 70.7573 60.7471 69.4808 63.5168L68.8191 64.9397C68.7313 65.1036 68.6552 65.2735 68.6083 65.455L58.3261 62.7146V62.7205ZM73.1932 65.2149C74.4462 62.4452 75.793 59.377 76.9641 56.5897C78.2816 53.4571 79.6635 50.0726 80.8756 46.8169L96.7733 51.0973C94.9405 53.6971 92.9731 56.5312 91.2223 59.1369C88.962 62.5038 86.5437 66.1752 84.4123 69.6768L72.6018 66.5265C72.6955 66.3216 73.1873 65.2149 73.1873 65.2149H73.1932ZM45.7016 37.3427L61.4822 41.5938L50.2689 60.5715L40.6659 58.0126L45.7016 37.3427ZM45.2624 71.4861C44.5305 70.9767 44.3783 69.993 44.9111 69.3606L48.4127 65.1973C49.5194 65.3554 50.6788 65.5311 51.8733 65.7126L47.2357 71.2285C46.7614 71.7906 45.9065 71.9253 45.2683 71.4803L45.2624 71.4861ZM51.8265 75.181C51.3287 75.7724 50.4094 75.8251 49.7829 75.2981C49.1505 74.7652 49.0451 73.8576 49.5428 73.2604L55.41 66.2806C56.5284 66.4621 57.6644 66.6554 58.8238 66.8603L51.8265 75.181ZM109.497 76.3579L87.1937 70.4146C89.6061 67.4693 92.0479 64.2956 94.2964 61.3268C96.2756 58.7094 98.4187 55.7875 100.345 53.1057C100.345 53.1057 100.691 52.6256 100.978 52.2333L112.238 55.2664L109.497 76.3638V76.3579Z" fill="#C83C28"/>
<path d="M127.632 92.8356C129.588 92.8356 131.175 91.2496 131.175 89.2931C131.175 87.3366 129.588 85.7505 127.632 85.7505C125.675 85.7505 124.089 87.3366 124.089 89.2931C124.089 91.2496 125.675 92.8356 127.632 92.8356Z" fill="#C83C28"/>
</svg>
