<svg xmlns="http://www.w3.org/2000/svg" width="45" height="45" viewBox="0 0 45 45">
  <g id="グループ_69" data-name="グループ 69" transform="translate(-1171 -54)">
    <path id="パス_10" data-name="パス 10" d="M1212.976,336.326a5.529,5.529,0,0,0-2.722-1.112s-1.87-.248-4.762-.5-6.8-.5-10.888-.511h-.2c-4.084.009-8,.26-10.888.511s-4.762.5-4.762.5a5.533,5.533,0,0,0-2.723,1.112c-1.361,1.03-2.722,3.007-2.722,6.8v12.709c0,3.847,1.361,5.877,2.722,6.946a5.581,5.581,0,0,0,2.723,1.177s1.87.223,4.762.448,6.805.451,10.888.459q.1,0,.2,0c4.084-.007,8-.234,10.888-.459s4.763-.448,4.763-.448a5.576,5.576,0,0,0,2.722-1.177c1.362-1.069,2.723-3.1,2.723-6.946V343.124c0-3.791-1.361-5.768-2.723-6.8m-23.534,20.687V342.251l11.788,7.382Z" transform="translate(-1.309 -273.204)" fill="#fff"/>
    <rect id="長方形_74" data-name="長方形 74" width="45" height="45" transform="translate(1171 54)" fill="none"/>
  </g>
</svg>
