<svg width="150" height="150" viewBox="0 0 150 150" fill="none" xmlns="http://www.w3.org/2000/svg">
<mask id="mask0_100_621" style="mask-type:luminance" maskUnits="userSpaceOnUse" x="29" y="34" width="111" height="90">
<path d="M140 34.6216H29.8613V123.417H140V34.6216Z" fill="white"/>
</mask>
<g mask="url(#mask0_100_621)">
<path d="M76.081 82.686C78.4853 81.8561 80.7338 80.6297 82.7331 79.0574C80.8382 76.1944 78.3641 73.7605 75.4705 71.9127C72.7343 70.2039 69.6562 69.1166 66.4537 68.7276C66.2078 68.6954 65.9612 68.674 65.7153 68.651C65.2227 68.6028 64.7302 68.5744 64.233 68.5599C63.9818 68.5545 63.7297 68.5491 63.4731 68.5491C61.9861 68.5537 60.5021 68.6819 59.0363 68.9321C58.4746 69.0287 57.9072 69.141 57.3343 69.2692C56.6655 69.4224 55.9907 69.6009 55.3112 69.8054C55.1825 69.8537 55.0546 69.8912 54.9205 69.9287C54.7673 69.9716 54.6264 70.0199 54.4762 70.0681C48.2094 72.0935 41.4662 75.0588 37.9555 80.8476C35.8628 84.3046 35.7187 88.6556 36.7996 92.5087C37.4809 94.7039 38.8625 96.6155 40.7331 97.9512C43.0052 99.6058 45.6679 100.642 48.4607 100.959C48.8437 101.007 49.2206 101.044 49.6097 101.066C49.9161 101.087 50.2225 101.093 50.5289 101.098H50.9886C51.2505 101.093 51.5133 101.082 51.7699 101.071C51.9576 101.06 52.1391 101.044 52.3268 101.028C52.5459 101.012 52.7657 100.991 52.9902 100.964C53.1296 100.948 53.2736 100.932 53.413 100.91C53.7286 100.867 54.0442 100.814 54.3606 100.757C54.4732 100.736 54.585 100.709 54.6976 100.687C55.0454 100.611 55.3932 100.534 55.7356 100.442C55.9179 100.393 56.0941 100.34 56.2764 100.288C56.6295 100.181 56.9773 100.064 57.3251 99.9352H57.3304C57.6782 99.8065 58.0206 99.6674 58.3577 99.5177C58.6947 99.3729 59.0318 99.2113 59.3581 99.0413C63.3023 97.0826 66.5586 93.149 66.5586 93.149C66.5586 93.149 69.3362 92.871 70.2516 92.7262C71.5275 92.487 72.7888 92.176 74.0296 91.7947C72.4924 94.4219 70.5244 96.7719 68.2079 98.7463C68.0631 98.8858 67.9191 99.0244 67.7743 99.1585C67.1905 99.7025 66.5797 100.217 65.9443 100.7C64.7801 101.584 63.5408 102.365 62.2406 103.033C61.9464 103.186 61.6515 103.327 61.352 103.467L61.3504 103.47L61.3467 103.472C60.9882 103.638 60.6243 103.798 60.2551 103.948C58.9666 104.474 57.6365 104.891 56.2787 105.195C55.8957 105.287 55.5027 105.362 55.1174 105.431C53.7464 105.672 52.3569 105.794 50.9648 105.794C50.013 105.794 49.0621 105.735 48.1175 105.618C47.2277 105.506 46.3451 105.343 45.474 105.13C38.2765 103.353 32.657 98.3894 31.7523 90.7499C30.254 81.7591 34.6639 74.5769 41.5734 69.8782C42.8396 69.0197 44.1647 68.2518 45.5391 67.5801C46.465 67.1144 47.4158 66.6772 48.3918 66.2687H48.3986C49.1647 65.9424 49.9442 65.6408 50.7373 65.364C51.0958 65.2353 51.4543 65.1181 51.8182 65.0002C53.5719 64.4287 55.3637 63.9815 57.1803 63.6619H57.1856C59.1038 63.317 61.0485 63.1414 62.9974 63.1372C63.5007 63.1372 63.9978 63.1479 64.4958 63.1747C65.1913 63.2069 65.8868 63.2713 66.5778 63.3571C70.0536 63.7597 73.4015 64.9078 76.3928 66.7229C81.1087 69.5653 84.8458 73.7781 87.1056 78.7992C87.2499 79.1367 87.2837 79.5112 87.2019 79.869C87.1202 80.2269 86.9271 80.5496 86.6505 80.7909C81.7756 85.9033 74.7864 87.9294 68.0432 88.8823C67.3476 88.9788 66.6575 89.0593 65.988 89.1175C65.5437 89.155 65.1047 89.1818 64.6712 89.2086H64.6605C63.4187 89.273 62.2199 89.273 61.0747 89.2194C60.491 89.1926 59.9257 89.155 59.3673 89.1014C59.0098 89.0692 58.6567 89.0317 58.3079 88.9888C53.6205 88.4793 49.1099 86.9131 45.1155 84.408L51.0138 80.7365C51.0138 80.7365 52.6991 83.0859 58.5116 83.9538C58.8701 84.0074 59.234 84.0556 59.6032 84.107C61.3821 84.328 63.1728 84.4406 64.9653 84.444C66.9563 84.4488 68.9446 84.2951 70.9112 83.9844C71.3018 83.9201 71.6925 83.8506 72.0832 83.776C72.2816 83.7385 72.4738 83.6994 72.6669 83.6527C73.2452 83.524 73.8228 83.3854 74.3958 83.2245C74.9688 83.0636 75.5249 82.8821 76.081 82.6883" fill="#9BD7D7"/>
<path d="M48.7834 112.632C47.8948 114.023 40.8934 120.508 40.7126 120.692C40.4996 120.721 47.3815 120.692 49.9462 119.409L50.2028 123.353H45.743C45.743 123.353 37.6738 123.353 36.9423 123.422V120.434C37.8339 119.566 42.2515 114.791 43.0229 113.088C42.9317 113.088 36.6573 113.394 35.5826 113.509L35.0693 109.148C36.2122 109.263 39.9427 109.661 42.2515 109.661C43.8862 109.661 48.0518 109.407 48.7834 109.338V112.632Z" fill="#E63C2D"/>
<path d="M107.727 121.242C106.956 121.18 106.223 120.878 105.632 120.378C105.042 119.878 104.622 119.206 104.433 118.456L113.73 117.677C113.704 117.555 113.684 117.433 113.671 117.31C113.563 116.499 113.382 115.701 113.129 114.923C112.752 113.679 111.933 112.615 110.827 111.932C109.72 111.249 108.403 110.994 107.121 111.214C103.598 111.597 101.52 114.275 101.921 117.927C102.006 119.225 102.524 120.458 103.393 121.426C104.262 122.395 105.431 123.044 106.712 123.268C110.765 124.028 112.539 121.749 113.552 119.469L110.512 118.709C110.448 119.403 110.126 120.047 109.611 120.516C109.095 120.985 108.424 121.244 107.727 121.242ZM106.931 113.391C107.65 113.192 108.418 113.274 109.079 113.622C109.739 113.97 110.242 114.556 110.485 115.261L104.119 116.397C104.125 115.635 104.417 114.902 104.938 114.345C105.459 113.788 106.171 113.448 106.931 113.391" fill="#5D5D5D"/>
<path d="M121.295 121.242C120.523 121.18 119.791 120.878 119.2 120.378C118.609 119.878 118.19 119.206 118.001 118.456L127.298 117.677C127.271 117.555 127.251 117.433 127.239 117.31C127.131 116.499 126.949 115.701 126.696 114.923C126.319 113.679 125.501 112.615 124.394 111.932C123.288 111.249 121.97 110.994 120.689 111.214C117.165 111.597 115.087 114.275 115.488 117.927C115.573 119.226 116.091 120.458 116.96 121.427C117.829 122.395 118.999 123.044 120.28 123.268C124.333 124.028 126.106 121.749 127.119 119.469L124.08 118.709C124.015 119.403 123.694 120.047 123.178 120.516C122.663 120.985 121.991 121.244 121.295 121.242ZM120.499 113.391C121.218 113.192 121.986 113.274 122.646 113.622C123.306 113.97 123.809 114.556 124.052 115.261L117.687 116.397C117.692 115.635 117.984 114.902 118.505 114.345C119.026 113.788 119.738 113.448 120.499 113.391" fill="#5D5D5D"/>
<path d="M94.6379 108.524C93.7929 108.582 92.9688 108.813 92.2165 109.202C91.4642 109.591 90.7996 110.131 90.264 110.787C89.0372 109.447 87.3384 108.636 85.5254 108.524C82.1986 108.524 78.9468 111.503 78.9468 114.945C78.9468 114.945 79.0564 120.966 78.6006 123.418H82.6099C81.8807 120.589 82.2323 115.512 82.2323 115.512C82.2323 113.947 83.4763 112.154 84.9708 111.918C87.3455 111.541 87.7093 113.947 87.7093 115.512C87.7093 115.512 88.077 120.966 87.3477 123.418H90.9925C90.7955 120.786 90.7955 118.143 90.9925 115.512C91.0448 114.71 91.3325 113.941 91.8196 113.302C92.3068 112.663 92.9716 112.181 93.731 111.918C96.0918 111.164 96.4695 113.947 96.4695 115.512C96.4695 115.512 96.8211 121.344 96.1899 123.418H100.467C100.029 120.614 99.7917 117.782 99.7565 114.945C99.7565 111.502 97.9617 108.524 94.6349 108.524" fill="#78BE69"/>
<path d="M52.026 117.631C51.6507 113.801 53.5918 111.155 57.0289 110.819C60.466 110.483 62.8828 112.701 63.2543 116.493C63.6274 120.305 61.6288 123.052 58.2423 123.387C54.8212 123.722 52.4029 121.484 52.026 117.634M54.3486 117.387C54.5616 119.562 55.922 120.757 57.9826 120.553C60.0432 120.348 61.1034 118.961 60.8935 116.786C60.6782 114.591 59.3438 113.415 57.33 113.613C55.2456 113.817 54.141 115.231 54.3517 117.387" fill="#5D5D5D"/>
<path d="M64.6989 117.631C64.3235 113.801 66.2646 111.155 69.7018 110.819C73.1389 110.483 75.5557 112.701 75.9272 116.493C76.3002 120.305 74.3017 123.052 70.9151 123.387C67.4941 123.722 65.0758 121.484 64.6989 117.634M67.0215 117.387C67.2344 119.562 68.5949 120.757 70.6555 120.553C72.716 120.348 73.7762 118.961 73.5663 116.786C73.3511 114.591 72.0167 113.415 70.0028 113.613C67.9185 113.817 66.8139 115.231 67.0245 117.387" fill="#5D5D5D"/>
<path d="M71.6203 38.7785C71.2273 40.1841 66.9805 47.4743 66.871 47.6758C66.6986 47.7524 72.5104 45.9561 74.3488 44.2103L75.5829 47.4797L71.8118 48.6287C71.8118 48.6287 64.9881 50.71 64.3868 50.9559L63.6169 48.428C64.147 47.4636 66.6519 42.2868 66.8648 40.6476C66.7882 40.6713 61.5609 42.5481 60.6816 42.9219L59.125 39.3714C60.1208 39.1737 63.3787 38.5479 65.3297 37.9535C66.7086 37.5314 70.1694 36.243 70.7685 35.9971L71.6203 38.7785Z" fill="#E63C2D"/>
<path d="M76.8581 48.0539C76.7795 48.5503 76.8016 49.0575 76.9231 49.5452C77.0445 50.0329 77.2629 50.4912 77.5651 50.8928C76.6418 51.4495 75.9646 52.3365 75.6708 53.3739C75.4648 54.3547 75.6349 55.3771 76.1474 56.2384C76.6599 57.0996 77.4773 57.7368 78.4376 58.0236C80.0434 58.3381 81.6259 58.7619 83.1739 59.2921C83.2337 59.0263 83.6014 57.3771 83.6963 56.9512C82.1661 56.8825 80.6506 56.6221 79.1853 56.176C78.722 56.0613 78.3085 55.7993 78.0071 55.4293C77.7056 55.0593 77.5325 54.6014 77.5138 54.1246C77.6103 52.6891 79.0152 52.781 79.8984 52.9756C79.8984 52.9756 83.0246 53.4482 84.313 54.182C84.408 53.7546 84.696 52.4784 84.7879 52.054C83.2774 51.8377 81.7858 51.5047 80.3266 51.0582C79.8759 50.9207 79.4763 50.6522 79.1787 50.2869C78.881 49.9216 78.6988 49.476 78.6552 49.0068C78.5372 47.5338 80.1566 47.6632 81.0398 47.8578C81.0398 47.8578 84.3773 48.3871 85.4651 49.0168L86.022 46.5211C84.3834 46.4235 82.7543 46.2054 81.1478 45.8684C79.2052 45.4349 77.2901 46.1074 76.8581 48.0501" fill="#78BE69"/>
<path d="M67.1704 50.9439C66.0942 39.9193 58.2042 33.6357 46.8717 34.7495C35.4726 35.8625 28.9001 43.5579 29.9764 54.5296C30.6344 61.2706 34.0363 66.3194 39.2299 68.9154C40.8119 67.7377 42.4962 66.7041 44.2626 65.8269C39.2215 64.5369 36.0586 60.4594 35.432 54.0746C34.5947 45.5764 39.0951 40.0097 47.3803 39.1962C55.5898 38.3934 61.0116 42.9903 61.8512 51.5858C62.2342 55.4496 61.4682 58.6983 59.7063 61.1495C60.814 61.0474 61.912 60.9963 63.0002 60.9963C63.8942 60.9963 64.782 61.0339 65.6598 61.1089C67.0696 57.9193 67.5928 54.4083 67.1743 50.9462M57.1877 63.6621H57.1823C55.0086 65.1283 52.4871 65.9959 49.8714 66.1777C49.3682 66.226 48.8817 66.2543 48.3999 66.2688H48.3915C47.4176 66.6774 46.4667 67.1145 45.5388 67.5803C44.1645 68.2519 42.8393 69.0199 41.5732 69.8783C44.4574 70.7955 47.5027 71.0947 50.5103 70.7562C52.0029 70.6145 53.4792 70.335 54.9203 69.9212C55.0543 69.8837 55.1822 69.8446 55.3109 69.7979C59.0539 68.7338 62.3043 66.3889 64.4947 63.1726C63.9968 63.1458 63.4989 63.1351 62.9964 63.1351C61.0475 63.1393 59.1027 63.3149 57.1846 63.6598" fill="#9BD7D7"/>
<path d="M108.615 60.6356L108.058 60.8125C107.95 60.8447 107.844 60.8822 107.737 60.9198C107.56 60.9787 107.384 61.0377 107.212 61.0967L106.414 61.3855C106.108 61.5035 105.802 61.6207 105.504 61.744C105.207 61.8673 104.892 61.9953 104.585 62.127C104.345 62.2289 104.109 62.33 103.874 62.4426C103.51 62.6088 103.146 62.7797 102.787 62.9566C102.472 63.1098 102.162 63.263 101.856 63.4277C101.797 63.4545 101.738 63.4867 101.679 63.5189C101.561 63.5778 101.438 63.6422 101.32 63.7119C101.203 63.7816 101.08 63.846 100.962 63.9103C100.903 63.9425 100.844 63.98 100.785 64.0122C100.689 64.0712 100.587 64.1248 100.491 64.1891C100.256 64.3232 100.02 64.4672 99.7953 64.612C99.7685 64.6281 99.7417 64.6441 99.7187 64.6602C99.4407 64.8372 99.1672 65.0134 98.8999 65.201C98.6701 65.3619 98.4403 65.522 98.215 65.6936C98.0435 65.8116 97.878 65.9395 97.7171 66.0682C97.6998 66.079 97.6836 66.0916 97.6689 66.1057C97.5027 66.229 97.3426 66.357 97.1817 66.4964C97.1281 66.5339 97.0798 66.5822 97.0285 66.6251C97.0165 66.6324 97.0056 66.6414 96.9963 66.6519C96.7182 66.8817 96.4394 67.123 96.1774 67.3689L95.9737 67.5565C95.8718 67.6531 95.7707 67.7496 95.6742 67.8453C95.5976 67.9219 95.521 67.9985 95.439 68.0805C95.4173 68.0941 95.399 68.1124 95.3854 68.1341C95.9216 68.1288 96.4716 68.0966 97.0338 68.043C102.549 67.5022 106.657 64.7621 108.69 60.6126C108.664 60.618 108.642 60.6287 108.614 60.634M110.037 52.2906C109.194 43.7112 103.085 38.7504 94.2923 39.6122C85.4991 40.474 80.4641 46.5232 81.3098 55.1854C82.0161 62.3568 86.2812 67.0127 92.6469 67.9549C93.9643 66.3946 95.473 65.0064 97.1373 63.823L96.6822 63.8712C89.9068 64.5346 85.4808 61.1136 84.8603 54.784C84.2475 48.5118 87.9244 44.3477 94.7879 43.6767C101.413 43.0294 105.753 46.4007 106.38 52.7923C106.719 55.1866 106.197 57.6235 104.909 59.6696C106.444 59.0556 108.017 58.5391 109.618 58.123C110.103 56.219 110.245 54.2436 110.035 52.2898" fill="#9BD7D7"/>
<path d="M56.4656 47.1785C56.5568 49.1127 55.4698 50.3957 53.6605 50.48C51.8511 50.5643 50.6477 49.3915 50.5573 47.4765C50.4669 45.5614 51.5884 44.2193 53.3694 44.1351C55.1695 44.0508 56.3737 45.2343 56.4656 47.1785Z" fill="#5D5D5D"/>
<path d="M90.0643 50.3487C90.0614 50.0459 90.1205 49.7458 90.2381 49.4669C90.3558 49.1879 90.5294 48.9361 90.7483 48.7269C90.9671 48.5177 91.2266 48.3557 91.5106 48.2508C91.7946 48.1459 92.097 48.1004 92.3993 48.1171C92.7016 48.1338 92.9972 48.2124 93.2679 48.3479C93.5387 48.4834 93.7787 48.673 93.9732 48.905C94.1677 49.137 94.3125 49.4065 94.3987 49.6967C94.4849 49.9869 94.5106 50.2917 94.4743 50.5923C94.4867 50.9001 94.4336 51.2071 94.3185 51.493C94.2035 51.7788 94.0291 52.037 93.807 52.2505C93.5848 52.464 93.3198 52.628 93.0296 52.7315C92.7394 52.8351 92.4305 52.8759 92.1234 52.8512C91.8162 52.8433 91.5143 52.7694 91.2381 52.6346C90.962 52.4998 90.718 52.3072 90.5227 52.0699C90.3275 51.8325 90.1855 51.5561 90.1064 51.2591C90.0273 50.9621 90.013 50.6516 90.0643 50.3487Z" fill="#5D5D5D"/>
<path d="M50.5264 101.094C50.603 101.094 50.6796 101.099 50.7508 101.099C50.8221 101.099 50.904 101.094 50.986 101.094H50.5264ZM57.3286 99.9274C57.6764 99.7987 58.018 99.6655 58.3558 99.51C58.0188 99.6596 57.6764 99.7987 57.3286 99.9274ZM72.6666 83.648C73.2503 83.5247 73.8279 83.3807 74.3955 83.2198C73.8225 83.3807 73.2465 83.5193 72.6666 83.648ZM74.3955 83.2198C74.9631 83.0589 75.5246 82.8828 76.0807 82.6836C75.5238 82.8766 74.9624 83.0582 74.3955 83.2198Z" fill="white"/>
<path d="M135.545 73.8173C135.684 73.7154 135.823 73.6143 135.957 73.507C135.791 73.2612 135.625 73.0145 135.454 72.7793C135.301 72.5656 135.154 72.3618 134.994 72.1589C134.812 71.913 134.625 71.677 134.427 71.4472C134.228 71.2174 134.043 70.9876 133.843 70.7624C133.536 70.4307 133.23 70.1044 132.917 69.7934C132.603 69.4824 132.285 69.1806 131.958 68.8994C131.631 68.6183 131.3 68.3372 130.958 68.0806C130.819 67.9733 130.685 67.8722 130.546 67.7703C130.444 67.6937 130.348 67.6256 130.252 67.562C130.107 67.4601 129.968 67.3643 129.824 67.2678C129.679 67.1713 129.535 67.0802 129.39 66.9844C129.213 66.8772 129.037 66.7653 128.854 66.6634C128.693 66.5723 128.538 66.4811 128.377 66.3961C128.216 66.3111 128.056 66.2191 127.89 66.1395C127.724 66.0598 127.574 65.9786 127.419 65.9043C127.247 65.8277 127.077 65.7434 126.905 65.6691C126.867 65.6531 126.835 65.6423 126.798 65.6262C126.712 65.5833 126.626 65.5496 126.546 65.519C126.393 65.4493 126.236 65.3903 126.075 65.326L125.692 65.1812C125.515 65.1168 125.334 65.0579 125.152 64.9935C125.13 64.9882 125.114 64.9774 125.093 64.9721C125.084 64.9677 125.075 64.9659 125.066 64.9667C124.926 64.9184 124.782 64.8755 124.643 64.8327C124.482 64.7844 124.317 64.7361 124.156 64.6932C123.995 64.6503 123.829 64.6074 123.663 64.5645C123.256 64.4627 122.85 64.3769 122.438 64.3026C122.207 64.2597 121.977 64.2221 121.748 64.19C121.603 64.1685 121.459 64.1471 121.309 64.131C121.3 64.1318 121.291 64.13 121.282 64.1256C121.042 64.0988 120.795 64.072 120.555 64.049C120.341 64.0276 120.127 64.0115 119.913 64.0008C119.843 63.9954 119.768 63.9954 119.699 63.99C119.63 63.9847 119.538 63.9793 119.453 63.9793C119.18 63.9686 118.902 63.9632 118.624 63.9632C115.952 63.9833 113.3 64.4169 110.762 65.2486C105.142 67.015 99.0901 69.6149 95.9011 74.7641C94.0068 77.8412 93.8406 81.7348 94.7828 85.1819C95.3764 87.1489 96.5959 88.8684 98.2559 90.0791C98.3792 90.1702 98.5018 90.2614 98.6251 90.3464C98.7323 90.423 98.8388 90.4996 98.9461 90.5655C98.989 90.5923 99.0227 90.6191 99.064 90.6421C99.1713 90.7187 99.2778 90.7815 99.385 90.8451C99.5137 90.9217 99.647 90.9983 99.7757 91.0749C100.129 91.2731 100.487 91.4551 100.848 91.6211H100.853C101.223 91.7927 101.592 91.9367 101.972 92.0707C102.16 92.1404 102.355 92.2048 102.545 92.2638C102.928 92.3817 103.321 92.4882 103.717 92.5794C104.113 92.6705 104.509 92.7402 104.91 92.7985C105.293 92.8574 105.676 92.9003 106.059 92.9271C106.482 92.9593 106.91 92.9754 107.333 92.9754H107.339C107.542 92.9754 107.745 92.97 107.951 92.9647C108.123 92.9593 108.294 92.9486 108.465 92.9379C108.706 92.9218 108.942 92.9003 109.182 92.8735C109.385 92.8521 109.589 92.8306 109.795 92.7969L110.408 92.7004C110.414 92.6961 110.422 92.6942 110.429 92.695C110.494 92.6843 110.563 92.6682 110.628 92.6575C110.836 92.6146 111.04 92.5717 111.248 92.5234C112.518 92.2267 113.749 91.7812 114.914 91.1959C117.37 89.8571 119.567 88.0899 121.401 85.9778C121.401 85.9778 123.885 85.7534 124.709 85.63C125.851 85.4275 126.98 85.1594 128.091 84.8273C126.697 87.1653 124.918 89.2513 122.83 90.9975C122.664 91.1584 122.498 91.3131 122.326 91.4633C122.173 91.6081 122.011 91.7467 121.845 91.8861C121.678 92.0255 121.508 92.1696 121.336 92.3036C121.164 92.4377 120.988 92.5763 120.811 92.7104C120.528 92.9241 120.244 93.1278 119.95 93.3232C119.709 93.4894 119.462 93.6441 119.216 93.7996C119.211 93.7996 119.211 93.805 119.206 93.805L119.202 93.8066L119.2 93.8104C119.003 93.9283 118.81 94.0455 118.606 94.1635C118.3 94.3404 117.993 94.5113 117.68 94.6721C117.367 94.833 117.054 94.9877 116.732 95.1317C116.579 95.2083 116.422 95.2765 116.261 95.3401C116.042 95.4366 115.822 95.5275 115.603 95.6128C115.501 95.6557 115.395 95.6894 115.293 95.7308C115.287 95.7364 115.28 95.7402 115.271 95.7415C115.026 95.8327 114.779 95.9238 114.528 96.0035C114.276 96.0831 114.03 96.1697 113.773 96.244C113.709 96.2655 113.644 96.2815 113.58 96.2976C113.307 96.3742 113.034 96.4508 112.756 96.5221H112.75C112.537 96.5757 112.322 96.6239 112.109 96.6753C111.895 96.7266 111.68 96.7664 111.467 96.804C111.313 96.8308 111.167 96.8576 111.022 96.8806C110.91 96.902 110.798 96.9181 110.691 96.9342C110.514 96.961 110.338 96.9878 110.166 97.0108C109.947 97.0376 109.727 97.059 109.508 97.0805C109.289 97.1019 109.069 97.118 108.85 97.1288C108.631 97.1395 108.411 97.1556 108.192 97.1609C107.973 97.1663 107.758 97.1716 107.539 97.1716H107.534C105.817 97.1757 104.107 96.9618 102.444 96.5351C96.0222 94.8973 91.0308 90.4177 90.2855 83.5733C90.1295 82.598 90.0509 81.6118 90.0503 80.6241C90.0503 80.3729 90.0557 80.1208 90.0664 79.875C90.0771 79.6291 90.0932 79.3878 90.1146 79.1526C90.1254 78.9864 90.1415 78.8263 90.1629 78.6654C90.162 78.6527 90.1639 78.6399 90.1683 78.6279C90.179 78.5367 90.1843 78.4509 90.2004 78.3605C90.2058 78.3016 90.2165 78.2372 90.2272 78.1782C90.2433 78.0495 90.2594 77.927 90.2809 77.8036C90.297 77.6964 90.3184 77.5899 90.3398 77.4827C90.372 77.3218 90.4042 77.1564 90.4364 76.9955C90.4793 76.7979 90.5222 76.6048 90.5758 76.4118C90.608 76.2885 90.6401 76.1659 90.6777 76.0426C90.7206 75.8817 90.7688 75.727 90.8171 75.5715C90.8653 75.416 90.9136 75.2505 90.9703 75.0896C90.9703 75.0843 90.9756 75.0789 90.9756 75.0736C91.0522 74.833 91.1472 74.5971 91.2376 74.3673C91.328 74.1375 91.4307 73.8962 91.5371 73.6664C91.5371 73.661 91.5425 73.661 91.5425 73.6557C91.6283 73.4631 91.7192 73.2703 91.8152 73.0773C91.8257 73.0508 91.8382 73.0252 91.8527 73.0007C91.9493 72.8077 92.0511 72.6177 92.1591 72.4277C92.3729 72.0317 92.6088 71.641 92.86 71.2611C93.1167 70.8597 93.3963 70.469 93.6843 70.0891C93.8291 69.9068 93.9731 69.7199 94.1232 69.5429C94.2465 69.3897 94.3691 69.2434 94.4978 69.0932C94.5353 69.0503 94.5744 69.0075 94.6158 68.9646C94.7498 68.8037 94.8938 68.649 95.0386 68.4935C95.1566 68.3701 95.2684 68.2529 95.3864 68.135H95.3917C95.4053 68.1133 95.4237 68.0949 95.4454 68.0813C95.522 68.0047 95.5986 67.9205 95.6805 67.8462C95.777 67.7497 95.8782 67.6531 95.98 67.5574L96.183 67.3697C96.445 67.1238 96.7238 66.8825 97.0019 66.6527C97.0113 66.6422 97.0221 66.6332 97.0341 66.6259C97.0877 66.583 97.136 66.5347 97.1873 66.4972C97.3482 66.3578 97.5082 66.2299 97.6745 66.1065C97.6892 66.0924 97.7054 66.0798 97.7227 66.069C97.8836 65.9403 98.0491 65.8124 98.2206 65.6944C98.4451 65.5228 98.6757 65.3627 98.9055 65.2019C99.1728 65.0142 99.4463 64.838 99.7243 64.6611C99.7458 64.645 99.7726 64.6289 99.8009 64.6128C100.025 64.468 100.261 64.324 100.496 64.19C100.593 64.1256 100.694 64.072 100.791 64.013C100.85 63.9808 100.909 63.9433 100.968 63.9111C101.086 63.8468 101.203 63.7771 101.326 63.7135C101.449 63.6499 101.567 63.5794 101.685 63.5205C101.744 63.4883 101.803 63.4561 101.862 63.4293C102.168 63.2631 102.474 63.1083 102.793 62.9582C103.152 62.7813 103.515 62.6104 103.879 62.4442C104.114 62.3316 104.35 62.2305 104.591 62.1286C104.897 61.9946 105.204 61.8666 105.51 61.7456C105.816 61.6246 106.114 61.5051 106.42 61.3871L107.218 61.0983C107.389 61.0393 107.565 60.9803 107.742 60.9214C107.849 60.8838 107.956 60.8448 108.063 60.8141L108.62 60.6372C108.647 60.6318 108.668 60.6211 108.697 60.6157H108.702C108.879 60.5621 109.061 60.5031 109.243 60.4549C109.425 60.4066 109.601 60.3476 109.784 60.3017C109.827 60.286 109.872 60.2734 109.918 60.2641C110.292 60.1622 110.667 60.0711 111.041 59.9807C111.176 59.9485 111.314 59.9163 111.443 59.8895C111.478 59.8781 111.514 59.8691 111.55 59.8627C112 59.7662 112.449 59.6751 112.899 59.5954C112.941 59.5913 112.982 59.5841 113.022 59.5739L113.418 59.5096C113.616 59.4774 113.82 59.4452 114.017 59.4184C114.146 59.397 114.279 59.3863 114.4 59.3648C114.417 59.3648 114.427 59.3594 114.443 59.3594C114.963 59.2897 115.481 59.2361 116.006 59.1986C116.129 59.1879 116.257 59.1825 116.389 59.1718C116.603 59.1557 116.823 59.145 117.036 59.1396C117.149 59.1342 117.266 59.1289 117.384 59.1289C117.657 59.1182 117.936 59.1128 118.208 59.1128C118.745 59.1128 119.281 59.1289 119.809 59.1611C120.076 59.1771 120.339 59.1932 120.601 59.22C121.125 59.2683 121.649 59.3273 122.169 59.4131C124.275 59.7304 126.324 60.3496 128.254 61.2515C128.741 61.4813 129.223 61.7333 129.693 62.0007C129.928 62.1347 130.164 62.2787 130.4 62.4235C134.589 65.0097 137.895 68.8068 139.88 73.3125C140.006 73.6152 140.033 73.9503 139.957 74.2695C139.881 74.5887 139.706 74.8756 139.457 75.0889C135.058 79.6222 128.791 81.3825 122.758 82.1853C122.367 82.2335 121.982 82.2818 121.602 82.3193C121.04 82.3729 120.483 82.4105 119.937 82.4373H119.905C119.846 82.4426 119.787 82.4426 119.728 82.448C119.284 82.4641 118.84 82.4748 118.406 82.4748C118.347 82.4802 118.288 82.4748 118.224 82.4748H118.106C117.688 82.4748 117.281 82.4587 116.88 82.4427C116.803 82.4427 116.727 82.4426 116.65 82.4373L116.099 82.4051C115.946 82.4 115.79 82.3893 115.633 82.3729C115.612 82.3729 115.585 82.3676 115.563 82.3676L115.419 82.3515C115.162 82.33 114.91 82.3032 114.664 82.2749C114.128 82.2159 113.615 82.1408 113.112 82.0558C113.021 82.0451 112.935 82.029 112.85 82.0129C112.807 82.0075 112.764 81.9968 112.721 81.9915C112.272 81.9149 111.827 81.8306 111.399 81.7348C111.175 81.6812 110.955 81.633 110.736 81.5816C110.383 81.4959 110.04 81.4047 109.703 81.3143L109.329 81.2017C109.175 81.1588 109.029 81.1105 108.884 81.0676C108.301 80.8853 107.75 80.6931 107.236 80.5C106.894 80.3713 106.567 80.238 106.256 80.1094C105.945 79.9807 105.652 79.8474 105.373 79.7187C104.445 79.2988 103.547 78.8142 102.687 78.2686C102.569 78.192 102.473 78.1292 102.392 78.0756C102.349 78.0488 102.316 78.022 102.285 77.999L107.589 74.7664C107.589 74.7664 109.071 76.8806 114.263 77.6995C114.605 77.7531 114.958 77.8067 115.306 77.8527C115.568 77.8902 115.842 77.9224 116.109 77.9492C116.13 77.9545 116.152 77.9545 116.173 77.9599C116.479 77.9921 116.786 78.0189 117.099 78.0457C117.412 78.0725 117.741 78.094 118.063 78.1154C118.139 78.1208 118.216 78.1261 118.287 78.1261C118.705 78.1583 119.122 78.169 119.54 78.1798H119.604C119.91 78.1851 120.217 78.1905 120.523 78.1851C120.636 78.1851 120.748 78.1851 120.86 78.1798C121.032 78.1798 121.208 78.1744 121.385 78.169C121.503 78.169 121.626 78.1637 121.744 78.1583C121.862 78.1529 121.968 78.1529 122.081 78.1422C122.369 78.1261 122.664 78.1101 122.958 78.0886C123.188 78.0725 123.413 78.0564 123.643 78.0296C123.873 78.0028 124.114 77.9814 124.35 77.953C124.585 77.9247 124.809 77.894 125.039 77.8619C125.387 77.8136 125.734 77.7546 126.077 77.6956C126.419 77.6367 126.762 77.5669 127.099 77.4926C127.436 77.4183 127.773 77.3479 128.11 77.2521C128.282 77.2092 128.447 77.1663 128.613 77.1181L129.111 76.9733C129.277 76.925 129.443 76.8714 129.609 76.8201C129.935 76.7128 130.262 76.601 130.583 76.483H130.589C130.91 76.3651 131.231 76.2371 131.542 76.1C132.013 75.897 132.479 75.6825 132.933 75.4474C133.086 75.3708 133.239 75.2865 133.388 75.2015C133.536 75.1164 133.682 75.0353 133.832 74.9502C133.982 74.8652 134.126 74.7786 134.271 74.6882C134.416 74.5979 134.56 74.5059 134.705 74.4102C134.715 74.4048 134.726 74.3941 134.737 74.3887C134.871 74.3029 134.999 74.2118 135.127 74.1214C135.256 74.031 135.405 73.9238 135.545 73.8219" fill="#9BD7D7"/>
<path d="M131.541 76.1003C132.017 75.9027 132.477 75.6829 132.932 75.4477C132.477 75.6829 132.012 75.8973 131.541 76.1003ZM122.159 59.4157C121.64 59.3299 121.116 59.2709 120.591 59.2227C121.116 59.2709 121.64 59.3353 122.159 59.4157ZM120.34 78.19C120.399 78.19 120.463 78.1847 120.522 78.1847C120.212 78.19 119.909 78.1847 119.603 78.1793C119.849 78.1847 120.095 78.19 120.341 78.19M116.648 82.4391C116.725 82.4445 116.802 82.4445 116.878 82.4445C116.616 82.4338 116.353 82.4231 116.097 82.407L116.648 82.4391ZM114.444 82.2461C114.075 82.2032 113.721 82.1549 113.371 82.0929C113.286 82.0822 113.2 82.0715 113.115 82.0554C113.618 82.1412 114.131 82.2162 114.667 82.2744C114.645 82.2691 114.624 82.2691 114.602 82.2637C114.549 82.2584 114.5 82.2476 114.449 82.2423" fill="white"/>
</g>
</svg>
